<?xml version="1.0" encoding="utf-8" standalone="no"?>
<!DOCTYPE svg PUBLIC "-//W3C//DTD SVG 1.1//EN"
  "http://www.w3.org/Graphics/SVG/1.1/DTD/svg11.dtd">
<svg xmlns:xlink="http://www.w3.org/1999/xlink" width="445.555938pt" height="323.607764pt" viewBox="0 0 445.555938 323.607764" xmlns="http://www.w3.org/2000/svg" version="1.1">
 <metadata>
  <rdf:RDF xmlns:dc="http://purl.org/dc/elements/1.1/" xmlns:cc="http://creativecommons.org/ns#" xmlns:rdf="http://www.w3.org/1999/02/22-rdf-syntax-ns#">
   <cc:Work>
    <dc:type rdf:resource="http://purl.org/dc/dcmitype/StillImage"/>
    <dc:date>2024-07-15T20:41:47.849147</dc:date>
    <dc:format>image/svg+xml</dc:format>
    <dc:creator>
     <cc:Agent>
      <dc:title>Matplotlib v3.7.1, https://matplotlib.org/</dc:title>
     </cc:Agent>
    </dc:creator>
   </cc:Work>
  </rdf:RDF>
 </metadata>
 <defs>
  <style type="text/css">*{stroke-linejoin: round; stroke-linecap: butt}</style>
 </defs>
 <g id="figure_1">
  <g id="patch_1">
   <path d="M 0 323.607764 
L 445.555938 323.607764 
L 445.555938 0 
L 0 0 
z
" style="fill: #ffffff"/>
  </g>
  <g id="axes_1">
   <g id="patch_2">
    <path d="M 58.915938 246.6255 
L 438.355937 246.6255 
L 438.355937 24.8655 
L 58.915938 24.8655 
z
" style="fill: #ffffff"/>
   </g>
   <g id="matplotlib.axis_1">
    <g id="xtick_1">
     <g id="line2d_1">
      <path d="M 133.720737 246.6255 
L 133.720737 24.8655 
" clip-path="url(#p7895a70591)" style="fill: none; stroke: #b0b0b0; stroke-width: 0.8; stroke-linecap: square"/>
     </g>
     <g id="line2d_2">
      <defs>
       <path id="mf777c77c99" d="M 0 0 
L 0 3.5 
" style="stroke: #000000; stroke-width: 0.8"/>
      </defs>
      <g>
       <use xlink:href="#mf777c77c99" x="133.720737" y="246.6255" style="stroke: #000000; stroke-width: 0.8"/>
      </g>
     </g>
     <g id="text_1">
      <!-- Jun 16 -->
      <g transform="translate(117.85231 286.904044) rotate(-45) scale(0.14 -0.14)">
       <defs>
        <path id="TimesNewRomanPSMT-4a" d="M 638 4122 
L 638 4238 
L 2453 4238 
L 2453 4122 
L 2300 4122 
Q 2041 4122 1922 3969 
Q 1847 3869 1847 3488 
L 1847 1416 
Q 1847 938 1742 641 
Q 1638 344 1381 123 
Q 1125 -97 763 -97 
Q 469 -97 300 48 
Q 131 194 131 381 
Q 131 534 209 613 
Q 313 709 450 709 
Q 550 709 629 643 
Q 709 578 831 294 
Q 903 125 1016 125 
Q 1100 125 1173 228 
Q 1247 331 1247 594 
L 1247 3488 
Q 1247 3809 1206 3913 
Q 1175 3991 1075 4047 
Q 941 4122 791 4122 
L 638 4122 
z
" transform="scale(0.015625)"/>
        <path id="TimesNewRomanPSMT-75" d="M 2709 2863 
L 2709 1128 
Q 2709 631 2732 520 
Q 2756 409 2807 365 
Q 2859 322 2928 322 
Q 3025 322 3147 375 
L 3191 266 
L 2334 -88 
L 2194 -88 
L 2194 519 
Q 1825 119 1631 15 
Q 1438 -88 1222 -88 
Q 981 -88 804 51 
Q 628 191 559 409 
Q 491 628 491 1028 
L 491 2306 
Q 491 2509 447 2587 
Q 403 2666 317 2708 
Q 231 2750 6 2747 
L 6 2863 
L 1009 2863 
L 1009 947 
Q 1009 547 1148 422 
Q 1288 297 1484 297 
Q 1619 297 1789 381 
Q 1959 466 2194 703 
L 2194 2325 
Q 2194 2569 2105 2655 
Q 2016 2741 1734 2747 
L 1734 2863 
L 2709 2863 
z
" transform="scale(0.015625)"/>
        <path id="TimesNewRomanPSMT-6e" d="M 1034 2341 
Q 1538 2947 1994 2947 
Q 2228 2947 2397 2830 
Q 2566 2713 2666 2444 
Q 2734 2256 2734 1869 
L 2734 647 
Q 2734 375 2778 278 
Q 2813 200 2889 156 
Q 2966 113 3172 113 
L 3172 0 
L 1756 0 
L 1756 113 
L 1816 113 
Q 2016 113 2095 173 
Q 2175 234 2206 353 
Q 2219 400 2219 647 
L 2219 1819 
Q 2219 2209 2117 2386 
Q 2016 2563 1775 2563 
Q 1403 2563 1034 2156 
L 1034 647 
Q 1034 356 1069 288 
Q 1113 197 1189 155 
Q 1266 113 1500 113 
L 1500 0 
L 84 0 
L 84 113 
L 147 113 
Q 366 113 442 223 
Q 519 334 519 647 
L 519 1709 
Q 519 2225 495 2337 
Q 472 2450 423 2490 
Q 375 2531 294 2531 
Q 206 2531 84 2484 
L 38 2597 
L 900 2947 
L 1034 2947 
L 1034 2341 
z
" transform="scale(0.015625)"/>
        <path id="TimesNewRomanPSMT-20" transform="scale(0.015625)"/>
        <path id="TimesNewRomanPSMT-31" d="M 750 3822 
L 1781 4325 
L 1884 4325 
L 1884 747 
Q 1884 391 1914 303 
Q 1944 216 2037 169 
Q 2131 122 2419 116 
L 2419 0 
L 825 0 
L 825 116 
Q 1125 122 1212 167 
Q 1300 213 1334 289 
Q 1369 366 1369 747 
L 1369 3034 
Q 1369 3497 1338 3628 
Q 1316 3728 1258 3775 
Q 1200 3822 1119 3822 
Q 1003 3822 797 3725 
L 750 3822 
z
" transform="scale(0.015625)"/>
        <path id="TimesNewRomanPSMT-36" d="M 2869 4325 
L 2869 4209 
Q 2456 4169 2195 4045 
Q 1934 3922 1679 3669 
Q 1425 3416 1258 3105 
Q 1091 2794 978 2366 
Q 1428 2675 1881 2675 
Q 2316 2675 2634 2325 
Q 2953 1975 2953 1425 
Q 2953 894 2631 456 
Q 2244 -75 1606 -75 
Q 1172 -75 869 213 
Q 275 772 275 1663 
Q 275 2231 503 2743 
Q 731 3256 1154 3653 
Q 1578 4050 1965 4187 
Q 2353 4325 2688 4325 
L 2869 4325 
z
M 925 2138 
Q 869 1716 869 1456 
Q 869 1156 980 804 
Q 1091 453 1309 247 
Q 1469 100 1697 100 
Q 1969 100 2183 356 
Q 2397 613 2397 1088 
Q 2397 1622 2184 2012 
Q 1972 2403 1581 2403 
Q 1463 2403 1327 2353 
Q 1191 2303 925 2138 
z
" transform="scale(0.015625)"/>
       </defs>
       <use xlink:href="#TimesNewRomanPSMT-4a"/>
       <use xlink:href="#TimesNewRomanPSMT-75" x="38.916016"/>
       <use xlink:href="#TimesNewRomanPSMT-6e" x="88.916016"/>
       <use xlink:href="#TimesNewRomanPSMT-20" x="138.916016"/>
       <use xlink:href="#TimesNewRomanPSMT-31" x="163.916016"/>
       <use xlink:href="#TimesNewRomanPSMT-36" x="213.916016"/>
      </g>
      <!-- 12 PM -->
      <g transform="translate(127.940979 297.548012) rotate(-45) scale(0.14 -0.14)">
       <defs>
        <path id="TimesNewRomanPSMT-32" d="M 2934 816 
L 2638 0 
L 138 0 
L 138 116 
Q 1241 1122 1691 1759 
Q 2141 2397 2141 2925 
Q 2141 3328 1894 3587 
Q 1647 3847 1303 3847 
Q 991 3847 742 3664 
Q 494 3481 375 3128 
L 259 3128 
Q 338 3706 661 4015 
Q 984 4325 1469 4325 
Q 1984 4325 2329 3994 
Q 2675 3663 2675 3213 
Q 2675 2891 2525 2569 
Q 2294 2063 1775 1497 
Q 997 647 803 472 
L 1909 472 
Q 2247 472 2383 497 
Q 2519 522 2628 598 
Q 2738 675 2819 816 
L 2934 816 
z
" transform="scale(0.015625)"/>
        <path id="TimesNewRomanPSMT-50" d="M 1313 1984 
L 1313 750 
Q 1313 350 1400 253 
Q 1519 116 1759 116 
L 1922 116 
L 1922 0 
L 106 0 
L 106 116 
L 266 116 
Q 534 116 650 291 
Q 713 388 713 750 
L 713 3488 
Q 713 3888 628 3984 
Q 506 4122 266 4122 
L 106 4122 
L 106 4238 
L 1659 4238 
Q 2228 4238 2556 4120 
Q 2884 4003 3109 3725 
Q 3334 3447 3334 3066 
Q 3334 2547 2992 2222 
Q 2650 1897 2025 1897 
Q 1872 1897 1694 1919 
Q 1516 1941 1313 1984 
z
M 1313 2163 
Q 1478 2131 1606 2115 
Q 1734 2100 1825 2100 
Q 2150 2100 2386 2351 
Q 2622 2603 2622 3003 
Q 2622 3278 2509 3514 
Q 2397 3750 2190 3867 
Q 1984 3984 1722 3984 
Q 1563 3984 1313 3925 
L 1313 2163 
z
" transform="scale(0.015625)"/>
        <path id="TimesNewRomanPSMT-4d" d="M 2619 0 
L 981 3566 
L 981 734 
Q 981 344 1066 247 
Q 1181 116 1431 116 
L 1581 116 
L 1581 0 
L 106 0 
L 106 116 
L 256 116 
Q 525 116 638 278 
Q 706 378 706 734 
L 706 3503 
Q 706 3784 644 3909 
Q 600 4000 483 4061 
Q 366 4122 106 4122 
L 106 4238 
L 1306 4238 
L 2844 922 
L 4356 4238 
L 5556 4238 
L 5556 4122 
L 5409 4122 
Q 5138 4122 5025 3959 
Q 4956 3859 4956 3503 
L 4956 734 
Q 4956 344 5044 247 
Q 5159 116 5409 116 
L 5556 116 
L 5556 0 
L 3756 0 
L 3756 116 
L 3906 116 
Q 4178 116 4288 278 
Q 4356 378 4356 734 
L 4356 3566 
L 2722 0 
L 2619 0 
z
" transform="scale(0.015625)"/>
       </defs>
       <use xlink:href="#TimesNewRomanPSMT-31"/>
       <use xlink:href="#TimesNewRomanPSMT-32" x="50"/>
       <use xlink:href="#TimesNewRomanPSMT-20" x="100"/>
       <use xlink:href="#TimesNewRomanPSMT-50" x="125"/>
       <use xlink:href="#TimesNewRomanPSMT-4d" x="180.615234"/>
      </g>
     </g>
    </g>
    <g id="xtick_2">
     <g id="line2d_3">
      <path d="M 248.83579 246.6255 
L 248.83579 24.8655 
" clip-path="url(#p7895a70591)" style="fill: none; stroke: #b0b0b0; stroke-width: 0.8; stroke-linecap: square"/>
     </g>
     <g id="line2d_4">
      <g>
       <use xlink:href="#mf777c77c99" x="248.83579" y="246.6255" style="stroke: #000000; stroke-width: 0.8"/>
      </g>
     </g>
     <g id="text_2">
      <!-- Jun 17 -->
      <g transform="translate(232.967364 286.904044) rotate(-45) scale(0.14 -0.14)">
       <defs>
        <path id="TimesNewRomanPSMT-37" d="M 644 4238 
L 2916 4238 
L 2916 4119 
L 1503 -88 
L 1153 -88 
L 2419 3728 
L 1253 3728 
Q 900 3728 750 3644 
Q 488 3500 328 3200 
L 238 3234 
L 644 4238 
z
" transform="scale(0.015625)"/>
       </defs>
       <use xlink:href="#TimesNewRomanPSMT-4a"/>
       <use xlink:href="#TimesNewRomanPSMT-75" x="38.916016"/>
       <use xlink:href="#TimesNewRomanPSMT-6e" x="88.916016"/>
       <use xlink:href="#TimesNewRomanPSMT-20" x="138.916016"/>
       <use xlink:href="#TimesNewRomanPSMT-31" x="163.916016"/>
       <use xlink:href="#TimesNewRomanPSMT-37" x="213.916016"/>
      </g>
      <!-- 12 PM -->
      <g transform="translate(243.056032 297.548012) rotate(-45) scale(0.14 -0.14)">
       <use xlink:href="#TimesNewRomanPSMT-31"/>
       <use xlink:href="#TimesNewRomanPSMT-32" x="50"/>
       <use xlink:href="#TimesNewRomanPSMT-20" x="100"/>
       <use xlink:href="#TimesNewRomanPSMT-50" x="125"/>
       <use xlink:href="#TimesNewRomanPSMT-4d" x="180.615234"/>
      </g>
     </g>
    </g>
    <g id="xtick_3">
     <g id="line2d_5">
      <path d="M 363.950843 246.6255 
L 363.950843 24.8655 
" clip-path="url(#p7895a70591)" style="fill: none; stroke: #b0b0b0; stroke-width: 0.8; stroke-linecap: square"/>
     </g>
     <g id="line2d_6">
      <g>
       <use xlink:href="#mf777c77c99" x="363.950843" y="246.6255" style="stroke: #000000; stroke-width: 0.8"/>
      </g>
     </g>
     <g id="text_3">
      <!-- Jun 18 -->
      <g transform="translate(348.082417 286.904044) rotate(-45) scale(0.14 -0.14)">
       <defs>
        <path id="TimesNewRomanPSMT-38" d="M 1228 2134 
Q 725 2547 579 2797 
Q 434 3047 434 3316 
Q 434 3728 753 4026 
Q 1072 4325 1600 4325 
Q 2113 4325 2425 4047 
Q 2738 3769 2738 3413 
Q 2738 3175 2569 2928 
Q 2400 2681 1866 2347 
Q 2416 1922 2594 1678 
Q 2831 1359 2831 1006 
Q 2831 559 2490 242 
Q 2150 -75 1597 -75 
Q 994 -75 656 303 
Q 388 606 388 966 
Q 388 1247 577 1523 
Q 766 1800 1228 2134 
z
M 1719 2469 
Q 2094 2806 2194 3001 
Q 2294 3197 2294 3444 
Q 2294 3772 2109 3958 
Q 1925 4144 1606 4144 
Q 1288 4144 1088 3959 
Q 888 3775 888 3528 
Q 888 3366 970 3203 
Q 1053 3041 1206 2894 
L 1719 2469 
z
M 1375 2016 
Q 1116 1797 991 1539 
Q 866 1281 866 981 
Q 866 578 1086 336 
Q 1306 94 1647 94 
Q 1984 94 2187 284 
Q 2391 475 2391 747 
Q 2391 972 2272 1150 
Q 2050 1481 1375 2016 
z
" transform="scale(0.015625)"/>
       </defs>
       <use xlink:href="#TimesNewRomanPSMT-4a"/>
       <use xlink:href="#TimesNewRomanPSMT-75" x="38.916016"/>
       <use xlink:href="#TimesNewRomanPSMT-6e" x="88.916016"/>
       <use xlink:href="#TimesNewRomanPSMT-20" x="138.916016"/>
       <use xlink:href="#TimesNewRomanPSMT-31" x="163.916016"/>
       <use xlink:href="#TimesNewRomanPSMT-38" x="213.916016"/>
      </g>
      <!-- 12 PM -->
      <g transform="translate(358.171085 297.548012) rotate(-45) scale(0.14 -0.14)">
       <use xlink:href="#TimesNewRomanPSMT-31"/>
       <use xlink:href="#TimesNewRomanPSMT-32" x="50"/>
       <use xlink:href="#TimesNewRomanPSMT-20" x="100"/>
       <use xlink:href="#TimesNewRomanPSMT-50" x="125"/>
       <use xlink:href="#TimesNewRomanPSMT-4d" x="180.615234"/>
      </g>
     </g>
    </g>
    <g id="text_4">
     <!-- Selected Days -->
     <g transform="translate(208.787344 313.386826) scale(0.14 -0.14)">
      <defs>
       <path id="TimesNewRomanPSMT-53" d="M 2934 4334 
L 2934 2869 
L 2819 2869 
Q 2763 3291 2617 3541 
Q 2472 3791 2203 3937 
Q 1934 4084 1647 4084 
Q 1322 4084 1109 3886 
Q 897 3688 897 3434 
Q 897 3241 1031 3081 
Q 1225 2847 1953 2456 
Q 2547 2138 2764 1967 
Q 2981 1797 3098 1565 
Q 3216 1334 3216 1081 
Q 3216 600 2842 251 
Q 2469 -97 1881 -97 
Q 1697 -97 1534 -69 
Q 1438 -53 1133 45 
Q 828 144 747 144 
Q 669 144 623 97 
Q 578 50 556 -97 
L 441 -97 
L 441 1356 
L 556 1356 
Q 638 900 775 673 
Q 913 447 1195 297 
Q 1478 147 1816 147 
Q 2206 147 2432 353 
Q 2659 559 2659 841 
Q 2659 997 2573 1156 
Q 2488 1316 2306 1453 
Q 2184 1547 1640 1851 
Q 1097 2156 867 2337 
Q 638 2519 519 2737 
Q 400 2956 400 3219 
Q 400 3675 750 4004 
Q 1100 4334 1641 4334 
Q 1978 4334 2356 4169 
Q 2531 4091 2603 4091 
Q 2684 4091 2736 4139 
Q 2788 4188 2819 4334 
L 2934 4334 
z
" transform="scale(0.015625)"/>
       <path id="TimesNewRomanPSMT-65" d="M 681 1784 
Q 678 1147 991 784 
Q 1303 422 1725 422 
Q 2006 422 2214 576 
Q 2422 731 2563 1106 
L 2659 1044 
Q 2594 616 2278 264 
Q 1963 -88 1488 -88 
Q 972 -88 605 314 
Q 238 716 238 1394 
Q 238 2128 614 2539 
Q 991 2950 1559 2950 
Q 2041 2950 2350 2633 
Q 2659 2316 2659 1784 
L 681 1784 
z
M 681 1966 
L 2006 1966 
Q 1991 2241 1941 2353 
Q 1863 2528 1708 2628 
Q 1553 2728 1384 2728 
Q 1125 2728 920 2526 
Q 716 2325 681 1966 
z
" transform="scale(0.015625)"/>
       <path id="TimesNewRomanPSMT-6c" d="M 1184 4444 
L 1184 647 
Q 1184 378 1223 290 
Q 1263 203 1344 158 
Q 1425 113 1647 113 
L 1647 0 
L 244 0 
L 244 113 
Q 441 113 512 153 
Q 584 194 625 287 
Q 666 381 666 647 
L 666 3247 
Q 666 3731 644 3842 
Q 622 3953 573 3993 
Q 525 4034 450 4034 
Q 369 4034 244 3984 
L 191 4094 
L 1044 4444 
L 1184 4444 
z
" transform="scale(0.015625)"/>
       <path id="TimesNewRomanPSMT-63" d="M 2631 1088 
Q 2516 522 2178 217 
Q 1841 -88 1431 -88 
Q 944 -88 581 321 
Q 219 731 219 1428 
Q 219 2103 620 2525 
Q 1022 2947 1584 2947 
Q 2006 2947 2278 2723 
Q 2550 2500 2550 2259 
Q 2550 2141 2473 2067 
Q 2397 1994 2259 1994 
Q 2075 1994 1981 2113 
Q 1928 2178 1911 2362 
Q 1894 2547 1784 2644 
Q 1675 2738 1481 2738 
Q 1169 2738 978 2506 
Q 725 2200 725 1697 
Q 725 1184 976 792 
Q 1228 400 1656 400 
Q 1963 400 2206 609 
Q 2378 753 2541 1131 
L 2631 1088 
z
" transform="scale(0.015625)"/>
       <path id="TimesNewRomanPSMT-74" d="M 1031 3803 
L 1031 2863 
L 1700 2863 
L 1700 2644 
L 1031 2644 
L 1031 788 
Q 1031 509 1111 412 
Q 1191 316 1316 316 
Q 1419 316 1516 380 
Q 1613 444 1666 569 
L 1788 569 
Q 1678 263 1478 108 
Q 1278 -47 1066 -47 
Q 922 -47 784 33 
Q 647 113 581 261 
Q 516 409 516 719 
L 516 2644 
L 63 2644 
L 63 2747 
Q 234 2816 414 2980 
Q 594 3144 734 3369 
Q 806 3488 934 3803 
L 1031 3803 
z
" transform="scale(0.015625)"/>
       <path id="TimesNewRomanPSMT-64" d="M 2222 322 
Q 2013 103 1813 7 
Q 1613 -88 1381 -88 
Q 913 -88 563 304 
Q 213 697 213 1313 
Q 213 1928 600 2439 
Q 988 2950 1597 2950 
Q 1975 2950 2222 2709 
L 2222 3238 
Q 2222 3728 2198 3840 
Q 2175 3953 2125 3993 
Q 2075 4034 2000 4034 
Q 1919 4034 1784 3984 
L 1744 4094 
L 2597 4444 
L 2738 4444 
L 2738 1134 
Q 2738 631 2761 520 
Q 2784 409 2836 365 
Q 2888 322 2956 322 
Q 3041 322 3181 375 
L 3216 266 
L 2366 -88 
L 2222 -88 
L 2222 322 
z
M 2222 541 
L 2222 2016 
Q 2203 2228 2109 2403 
Q 2016 2578 1861 2667 
Q 1706 2756 1559 2756 
Q 1284 2756 1069 2509 
Q 784 2184 784 1559 
Q 784 928 1059 592 
Q 1334 256 1672 256 
Q 1956 256 2222 541 
z
" transform="scale(0.015625)"/>
       <path id="TimesNewRomanPSMT-44" d="M 109 0 
L 109 116 
L 269 116 
Q 538 116 650 288 
Q 719 391 719 750 
L 719 3488 
Q 719 3884 631 3984 
Q 509 4122 269 4122 
L 109 4122 
L 109 4238 
L 1834 4238 
Q 2784 4238 3279 4022 
Q 3775 3806 4076 3303 
Q 4378 2800 4378 2141 
Q 4378 1256 3841 663 
Q 3238 0 2003 0 
L 109 0 
z
M 1319 306 
Q 1716 219 1984 219 
Q 2709 219 3187 728 
Q 3666 1238 3666 2109 
Q 3666 2988 3187 3494 
Q 2709 4000 1959 4000 
Q 1678 4000 1319 3909 
L 1319 306 
z
" transform="scale(0.015625)"/>
       <path id="TimesNewRomanPSMT-61" d="M 1822 413 
Q 1381 72 1269 19 
Q 1100 -59 909 -59 
Q 613 -59 420 144 
Q 228 347 228 678 
Q 228 888 322 1041 
Q 450 1253 767 1440 
Q 1084 1628 1822 1897 
L 1822 2009 
Q 1822 2438 1686 2597 
Q 1550 2756 1291 2756 
Q 1094 2756 978 2650 
Q 859 2544 859 2406 
L 866 2225 
Q 866 2081 792 2003 
Q 719 1925 600 1925 
Q 484 1925 411 2006 
Q 338 2088 338 2228 
Q 338 2497 613 2722 
Q 888 2947 1384 2947 
Q 1766 2947 2009 2819 
Q 2194 2722 2281 2516 
Q 2338 2381 2338 1966 
L 2338 994 
Q 2338 584 2353 492 
Q 2369 400 2405 369 
Q 2441 338 2488 338 
Q 2538 338 2575 359 
Q 2641 400 2828 588 
L 2828 413 
Q 2478 -56 2159 -56 
Q 2006 -56 1915 50 
Q 1825 156 1822 413 
z
M 1822 616 
L 1822 1706 
Q 1350 1519 1213 1441 
Q 966 1303 859 1153 
Q 753 1003 753 825 
Q 753 600 887 451 
Q 1022 303 1197 303 
Q 1434 303 1822 616 
z
" transform="scale(0.015625)"/>
       <path id="TimesNewRomanPSMT-79" d="M 38 2863 
L 1372 2863 
L 1372 2747 
L 1306 2747 
Q 1166 2747 1095 2686 
Q 1025 2625 1025 2534 
Q 1025 2413 1128 2197 
L 1825 753 
L 2466 2334 
Q 2519 2463 2519 2588 
Q 2519 2644 2497 2672 
Q 2472 2706 2419 2726 
Q 2366 2747 2231 2747 
L 2231 2863 
L 3163 2863 
L 3163 2747 
Q 3047 2734 2984 2696 
Q 2922 2659 2847 2556 
Q 2819 2513 2741 2316 
L 1575 -541 
Q 1406 -956 1132 -1168 
Q 859 -1381 606 -1381 
Q 422 -1381 303 -1275 
Q 184 -1169 184 -1031 
Q 184 -900 270 -820 
Q 356 -741 506 -741 
Q 609 -741 788 -809 
Q 913 -856 944 -856 
Q 1038 -856 1148 -759 
Q 1259 -663 1372 -384 
L 1575 113 
L 547 2272 
Q 500 2369 397 2513 
Q 319 2622 269 2659 
Q 197 2709 38 2747 
L 38 2863 
z
" transform="scale(0.015625)"/>
       <path id="TimesNewRomanPSMT-73" d="M 2050 2947 
L 2050 1972 
L 1947 1972 
Q 1828 2431 1642 2597 
Q 1456 2763 1169 2763 
Q 950 2763 815 2647 
Q 681 2531 681 2391 
Q 681 2216 781 2091 
Q 878 1963 1175 1819 
L 1631 1597 
Q 2266 1288 2266 781 
Q 2266 391 1970 151 
Q 1675 -88 1309 -88 
Q 1047 -88 709 6 
Q 606 38 541 38 
Q 469 38 428 -44 
L 325 -44 
L 325 978 
L 428 978 
Q 516 541 762 319 
Q 1009 97 1316 97 
Q 1531 97 1667 223 
Q 1803 350 1803 528 
Q 1803 744 1651 891 
Q 1500 1038 1047 1263 
Q 594 1488 453 1669 
Q 313 1847 313 2119 
Q 313 2472 555 2709 
Q 797 2947 1181 2947 
Q 1350 2947 1591 2875 
Q 1750 2828 1803 2828 
Q 1853 2828 1881 2850 
Q 1909 2872 1947 2947 
L 2050 2947 
z
" transform="scale(0.015625)"/>
      </defs>
      <use xlink:href="#TimesNewRomanPSMT-53"/>
      <use xlink:href="#TimesNewRomanPSMT-65" x="55.615234"/>
      <use xlink:href="#TimesNewRomanPSMT-6c" x="100"/>
      <use xlink:href="#TimesNewRomanPSMT-65" x="127.783203"/>
      <use xlink:href="#TimesNewRomanPSMT-63" x="172.167969"/>
      <use xlink:href="#TimesNewRomanPSMT-74" x="216.552734"/>
      <use xlink:href="#TimesNewRomanPSMT-65" x="244.335938"/>
      <use xlink:href="#TimesNewRomanPSMT-64" x="288.720703"/>
      <use xlink:href="#TimesNewRomanPSMT-20" x="338.720703"/>
      <use xlink:href="#TimesNewRomanPSMT-44" x="363.720703"/>
      <use xlink:href="#TimesNewRomanPSMT-61" x="435.9375"/>
      <use xlink:href="#TimesNewRomanPSMT-79" x="480.322266"/>
      <use xlink:href="#TimesNewRomanPSMT-73" x="530.322266"/>
     </g>
    </g>
   </g>
   <g id="matplotlib.axis_2">
    <g id="ytick_1">
     <g id="line2d_7">
      <path d="M 58.915938 236.133961 
L 438.355937 236.133961 
" clip-path="url(#p7895a70591)" style="fill: none; stroke: #b0b0b0; stroke-width: 0.8; stroke-linecap: square"/>
     </g>
     <g id="line2d_8">
      <defs>
       <path id="mfb9b1b483c" d="M 0 0 
L -3.5 0 
" style="stroke: #000000; stroke-width: 0.8"/>
      </defs>
      <g>
       <use xlink:href="#mfb9b1b483c" x="58.915938" y="236.133961" style="stroke: #000000; stroke-width: 0.8"/>
      </g>
     </g>
     <g id="text_5">
      <!-- 0 -->
      <g transform="translate(44.915938 240.994586) scale(0.14 -0.14)">
       <defs>
        <path id="TimesNewRomanPSMT-30" d="M 231 2094 
Q 231 2819 450 3342 
Q 669 3866 1031 4122 
Q 1313 4325 1613 4325 
Q 2100 4325 2488 3828 
Q 2972 3213 2972 2159 
Q 2972 1422 2759 906 
Q 2547 391 2217 158 
Q 1888 -75 1581 -75 
Q 975 -75 572 641 
Q 231 1244 231 2094 
z
M 844 2016 
Q 844 1141 1059 588 
Q 1238 122 1591 122 
Q 1759 122 1940 273 
Q 2122 425 2216 781 
Q 2359 1319 2359 2297 
Q 2359 3022 2209 3506 
Q 2097 3866 1919 4016 
Q 1791 4119 1609 4119 
Q 1397 4119 1231 3928 
Q 1006 3669 925 3112 
Q 844 2556 844 2016 
z
" transform="scale(0.015625)"/>
       </defs>
       <use xlink:href="#TimesNewRomanPSMT-30"/>
      </g>
     </g>
    </g>
    <g id="ytick_2">
     <g id="line2d_9">
      <path d="M 58.915938 197.702546 
L 438.355937 197.702546 
" clip-path="url(#p7895a70591)" style="fill: none; stroke: #b0b0b0; stroke-width: 0.8; stroke-linecap: square"/>
     </g>
     <g id="line2d_10">
      <g>
       <use xlink:href="#mfb9b1b483c" x="58.915938" y="197.702546" style="stroke: #000000; stroke-width: 0.8"/>
      </g>
     </g>
     <g id="text_6">
      <!-- 200 -->
      <g transform="translate(30.915938 202.563171) scale(0.14 -0.14)">
       <use xlink:href="#TimesNewRomanPSMT-32"/>
       <use xlink:href="#TimesNewRomanPSMT-30" x="50"/>
       <use xlink:href="#TimesNewRomanPSMT-30" x="100"/>
      </g>
     </g>
    </g>
    <g id="ytick_3">
     <g id="line2d_11">
      <path d="M 58.915938 159.27113 
L 438.355937 159.27113 
" clip-path="url(#p7895a70591)" style="fill: none; stroke: #b0b0b0; stroke-width: 0.8; stroke-linecap: square"/>
     </g>
     <g id="line2d_12">
      <g>
       <use xlink:href="#mfb9b1b483c" x="58.915938" y="159.27113" style="stroke: #000000; stroke-width: 0.8"/>
      </g>
     </g>
     <g id="text_7">
      <!-- 400 -->
      <g transform="translate(30.915938 164.131755) scale(0.14 -0.14)">
       <defs>
        <path id="TimesNewRomanPSMT-34" d="M 2978 1563 
L 2978 1119 
L 2409 1119 
L 2409 0 
L 1894 0 
L 1894 1119 
L 100 1119 
L 100 1519 
L 2066 4325 
L 2409 4325 
L 2409 1563 
L 2978 1563 
z
M 1894 1563 
L 1894 3666 
L 406 1563 
L 1894 1563 
z
" transform="scale(0.015625)"/>
       </defs>
       <use xlink:href="#TimesNewRomanPSMT-34"/>
       <use xlink:href="#TimesNewRomanPSMT-30" x="50"/>
       <use xlink:href="#TimesNewRomanPSMT-30" x="100"/>
      </g>
     </g>
    </g>
    <g id="ytick_4">
     <g id="line2d_13">
      <path d="M 58.915938 120.839714 
L 438.355937 120.839714 
" clip-path="url(#p7895a70591)" style="fill: none; stroke: #b0b0b0; stroke-width: 0.8; stroke-linecap: square"/>
     </g>
     <g id="line2d_14">
      <g>
       <use xlink:href="#mfb9b1b483c" x="58.915938" y="120.839714" style="stroke: #000000; stroke-width: 0.8"/>
      </g>
     </g>
     <g id="text_8">
      <!-- 600 -->
      <g transform="translate(30.915938 125.700339) scale(0.14 -0.14)">
       <use xlink:href="#TimesNewRomanPSMT-36"/>
       <use xlink:href="#TimesNewRomanPSMT-30" x="50"/>
       <use xlink:href="#TimesNewRomanPSMT-30" x="100"/>
      </g>
     </g>
    </g>
    <g id="ytick_5">
     <g id="line2d_15">
      <path d="M 58.915938 82.408298 
L 438.355937 82.408298 
" clip-path="url(#p7895a70591)" style="fill: none; stroke: #b0b0b0; stroke-width: 0.8; stroke-linecap: square"/>
     </g>
     <g id="line2d_16">
      <g>
       <use xlink:href="#mfb9b1b483c" x="58.915938" y="82.408298" style="stroke: #000000; stroke-width: 0.8"/>
      </g>
     </g>
     <g id="text_9">
      <!-- 800 -->
      <g transform="translate(30.915938 87.268923) scale(0.14 -0.14)">
       <use xlink:href="#TimesNewRomanPSMT-38"/>
       <use xlink:href="#TimesNewRomanPSMT-30" x="50"/>
       <use xlink:href="#TimesNewRomanPSMT-30" x="100"/>
      </g>
     </g>
    </g>
    <g id="ytick_6">
     <g id="line2d_17">
      <path d="M 58.915938 43.976883 
L 438.355937 43.976883 
" clip-path="url(#p7895a70591)" style="fill: none; stroke: #b0b0b0; stroke-width: 0.8; stroke-linecap: square"/>
     </g>
     <g id="line2d_18">
      <g>
       <use xlink:href="#mfb9b1b483c" x="58.915938" y="43.976883" style="stroke: #000000; stroke-width: 0.8"/>
      </g>
     </g>
     <g id="text_10">
      <!-- 1000 -->
      <g transform="translate(23.915938 48.837508) scale(0.14 -0.14)">
       <use xlink:href="#TimesNewRomanPSMT-31"/>
       <use xlink:href="#TimesNewRomanPSMT-30" x="50"/>
       <use xlink:href="#TimesNewRomanPSMT-30" x="100"/>
       <use xlink:href="#TimesNewRomanPSMT-30" x="150"/>
      </g>
     </g>
    </g>
    <g id="text_11">
     <!-- Irradiance (W/m²) -->
     <g transform="translate(16.92125 186.619094) rotate(-90) scale(0.14 -0.14)">
      <defs>
       <path id="TimesNewRomanPSMT-49" d="M 1975 116 
L 1975 0 
L 159 0 
L 159 116 
L 309 116 
Q 572 116 691 269 
Q 766 369 766 750 
L 766 3488 
Q 766 3809 725 3913 
Q 694 3991 597 4047 
Q 459 4122 309 4122 
L 159 4122 
L 159 4238 
L 1975 4238 
L 1975 4122 
L 1822 4122 
Q 1563 4122 1444 3969 
Q 1366 3869 1366 3488 
L 1366 750 
Q 1366 428 1406 325 
Q 1438 247 1538 191 
Q 1672 116 1822 116 
L 1975 116 
z
" transform="scale(0.015625)"/>
       <path id="TimesNewRomanPSMT-72" d="M 1038 2947 
L 1038 2303 
Q 1397 2947 1775 2947 
Q 1947 2947 2059 2842 
Q 2172 2738 2172 2600 
Q 2172 2478 2090 2393 
Q 2009 2309 1897 2309 
Q 1788 2309 1652 2417 
Q 1516 2525 1450 2525 
Q 1394 2525 1328 2463 
Q 1188 2334 1038 2041 
L 1038 669 
Q 1038 431 1097 309 
Q 1138 225 1241 169 
Q 1344 113 1538 113 
L 1538 0 
L 72 0 
L 72 113 
Q 291 113 397 181 
Q 475 231 506 341 
Q 522 394 522 644 
L 522 1753 
Q 522 2253 501 2348 
Q 481 2444 426 2487 
Q 372 2531 291 2531 
Q 194 2531 72 2484 
L 41 2597 
L 906 2947 
L 1038 2947 
z
" transform="scale(0.015625)"/>
       <path id="TimesNewRomanPSMT-69" d="M 928 4444 
Q 1059 4444 1151 4351 
Q 1244 4259 1244 4128 
Q 1244 3997 1151 3903 
Q 1059 3809 928 3809 
Q 797 3809 703 3903 
Q 609 3997 609 4128 
Q 609 4259 701 4351 
Q 794 4444 928 4444 
z
M 1188 2947 
L 1188 647 
Q 1188 378 1227 289 
Q 1266 200 1342 156 
Q 1419 113 1622 113 
L 1622 0 
L 231 0 
L 231 113 
Q 441 113 512 153 
Q 584 194 626 287 
Q 669 381 669 647 
L 669 1750 
Q 669 2216 641 2353 
Q 619 2453 572 2492 
Q 525 2531 444 2531 
Q 356 2531 231 2484 
L 188 2597 
L 1050 2947 
L 1188 2947 
z
" transform="scale(0.015625)"/>
       <path id="TimesNewRomanPSMT-28" d="M 1988 -1253 
L 1988 -1369 
Q 1516 -1131 1200 -813 
Q 750 -359 506 256 
Q 263 872 263 1534 
Q 263 2503 741 3301 
Q 1219 4100 1988 4444 
L 1988 4313 
Q 1603 4100 1356 3731 
Q 1109 3363 987 2797 
Q 866 2231 866 1616 
Q 866 947 969 400 
Q 1050 -31 1165 -292 
Q 1281 -553 1476 -793 
Q 1672 -1034 1988 -1253 
z
" transform="scale(0.015625)"/>
       <path id="TimesNewRomanPSMT-57" d="M 5991 4238 
L 5991 4122 
Q 5825 4122 5722 4062 
Q 5619 4003 5525 3841 
Q 5463 3731 5328 3319 
L 4147 -97 
L 4022 -97 
L 3056 2613 
L 2097 -97 
L 1984 -97 
L 725 3422 
Q 584 3816 547 3888 
Q 484 4006 376 4064 
Q 269 4122 84 4122 
L 84 4238 
L 1653 4238 
L 1653 4122 
L 1578 4122 
Q 1413 4122 1325 4047 
Q 1238 3972 1238 3866 
Q 1238 3756 1375 3363 
L 2209 984 
L 2913 3006 
L 2788 3363 
L 2688 3647 
Q 2622 3803 2541 3922 
Q 2500 3981 2441 4022 
Q 2363 4078 2284 4103 
Q 2225 4122 2097 4122 
L 2097 4238 
L 3747 4238 
L 3747 4122 
L 3634 4122 
Q 3459 4122 3378 4047 
Q 3297 3972 3297 3844 
Q 3297 3684 3438 3288 
L 4250 984 
L 5056 3319 
Q 5194 3706 5194 3856 
Q 5194 3928 5148 3990 
Q 5103 4053 5034 4078 
Q 4916 4122 4725 4122 
L 4725 4238 
L 5991 4238 
z
" transform="scale(0.015625)"/>
       <path id="TimesNewRomanPSMT-2f" d="M 1794 4444 
L 259 -88 
L 9 -88 
L 1544 4444 
L 1794 4444 
z
" transform="scale(0.015625)"/>
       <path id="TimesNewRomanPSMT-6d" d="M 1050 2338 
Q 1363 2650 1419 2697 
Q 1559 2816 1721 2881 
Q 1884 2947 2044 2947 
Q 2313 2947 2506 2790 
Q 2700 2634 2766 2338 
Q 3088 2713 3309 2830 
Q 3531 2947 3766 2947 
Q 3994 2947 4170 2830 
Q 4347 2713 4450 2447 
Q 4519 2266 4519 1878 
L 4519 647 
Q 4519 378 4559 278 
Q 4591 209 4675 161 
Q 4759 113 4950 113 
L 4950 0 
L 3538 0 
L 3538 113 
L 3597 113 
Q 3781 113 3884 184 
Q 3956 234 3988 344 
Q 4000 397 4000 647 
L 4000 1878 
Q 4000 2228 3916 2372 
Q 3794 2572 3525 2572 
Q 3359 2572 3192 2489 
Q 3025 2406 2788 2181 
L 2781 2147 
L 2788 2013 
L 2788 647 
Q 2788 353 2820 281 
Q 2853 209 2943 161 
Q 3034 113 3253 113 
L 3253 0 
L 1806 0 
L 1806 113 
Q 2044 113 2133 169 
Q 2222 225 2256 338 
Q 2272 391 2272 647 
L 2272 1878 
Q 2272 2228 2169 2381 
Q 2031 2581 1784 2581 
Q 1616 2581 1450 2491 
Q 1191 2353 1050 2181 
L 1050 647 
Q 1050 366 1089 281 
Q 1128 197 1204 155 
Q 1281 113 1516 113 
L 1516 0 
L 100 0 
L 100 113 
Q 297 113 375 155 
Q 453 197 493 289 
Q 534 381 534 647 
L 534 1741 
Q 534 2213 506 2350 
Q 484 2453 437 2492 
Q 391 2531 309 2531 
Q 222 2531 100 2484 
L 53 2597 
L 916 2947 
L 1050 2947 
L 1050 2338 
z
" transform="scale(0.015625)"/>
       <path id="TimesNewRomanPSMT-b2" d="M 1797 2550 
L 1606 2075 
L 63 2075 
L 63 2166 
Q 834 2766 1088 3144 
Q 1244 3375 1244 3591 
Q 1244 3781 1114 3911 
Q 984 4041 788 4041 
Q 609 4041 475 3948 
Q 341 3856 272 3672 
L 131 3672 
Q 175 3978 373 4151 
Q 572 4325 888 4325 
Q 1219 4325 1426 4144 
Q 1634 3963 1634 3738 
Q 1634 3531 1484 3297 
Q 1250 2931 563 2375 
L 1144 2375 
Q 1416 2375 1505 2412 
Q 1594 2450 1656 2550 
L 1797 2550 
z
" transform="scale(0.015625)"/>
       <path id="TimesNewRomanPSMT-29" d="M 144 4313 
L 144 4444 
Q 619 4209 934 3891 
Q 1381 3434 1625 2820 
Q 1869 2206 1869 1541 
Q 1869 572 1392 -226 
Q 916 -1025 144 -1369 
L 144 -1253 
Q 528 -1038 776 -670 
Q 1025 -303 1145 264 
Q 1266 831 1266 1447 
Q 1266 2113 1163 2663 
Q 1084 3094 967 3353 
Q 850 3613 656 3853 
Q 463 4094 144 4313 
z
" transform="scale(0.015625)"/>
      </defs>
      <use xlink:href="#TimesNewRomanPSMT-49"/>
      <use xlink:href="#TimesNewRomanPSMT-72" x="33.300781"/>
      <use xlink:href="#TimesNewRomanPSMT-72" x="66.601562"/>
      <use xlink:href="#TimesNewRomanPSMT-61" x="99.902344"/>
      <use xlink:href="#TimesNewRomanPSMT-64" x="144.287109"/>
      <use xlink:href="#TimesNewRomanPSMT-69" x="194.287109"/>
      <use xlink:href="#TimesNewRomanPSMT-61" x="222.070312"/>
      <use xlink:href="#TimesNewRomanPSMT-6e" x="266.455078"/>
      <use xlink:href="#TimesNewRomanPSMT-63" x="316.455078"/>
      <use xlink:href="#TimesNewRomanPSMT-65" x="360.839844"/>
      <use xlink:href="#TimesNewRomanPSMT-20" x="405.224609"/>
      <use xlink:href="#TimesNewRomanPSMT-28" x="430.224609"/>
      <use xlink:href="#TimesNewRomanPSMT-57" x="463.525391"/>
      <use xlink:href="#TimesNewRomanPSMT-2f" x="557.910156"/>
      <use xlink:href="#TimesNewRomanPSMT-6d" x="585.693359"/>
      <use xlink:href="#TimesNewRomanPSMT-b2" x="663.476562"/>
      <use xlink:href="#TimesNewRomanPSMT-29" x="693.457031"/>
     </g>
    </g>
   </g>
   <g id="line2d_19">
    <path d="M 76.16321 236.133961 
L 97.747283 236.133961 
L 98.146988 233.828076 
L 98.546693 232.675134 
L 99.346103 229.408464 
L 100.545218 223.259437 
L 101.744333 215.957468 
L 104.142563 199.239802 
L 110.537844 149.278962 
L 112.136664 136.788752 
L 116.933125 102.584792 
L 117.33283 98.165179 
L 118.531945 90.478896 
L 121.32988 74.914172 
L 122.928701 67.612203 
L 124.527521 61.078863 
L 126.526046 54.737679 
L 127.325456 52.623951 
L 128.124866 50.894538 
L 129.323981 48.78081 
L 130.523096 47.243553 
L 130.922802 46.859239 
L 131.322507 46.667082 
L 131.722212 46.090611 
L 132.921327 46.090611 
L 133.720737 46.474925 
L 134.520147 47.243553 
L 136.118967 49.741595 
L 138.117492 54.737679 
L 139.316607 58.388664 
L 141.714838 67.996518 
L 142.514248 71.647502 
L 145.711888 89.133796 
L 148.909529 109.694604 
L 152.506874 136.404438 
L 155.304809 158.694659 
L 159.30186 190.592734 
L 161.70009 208.463342 
L 164.09832 224.028065 
L 165.297435 230.177092 
L 166.096846 233.059448 
L 166.496551 234.212391 
L 166.896256 236.133961 
L 212.862336 236.133961 
L 213.262041 233.635919 
L 213.661746 232.482977 
L 214.461156 229.216307 
L 216.059976 220.377081 
L 217.658796 209.808442 
L 219.657322 195.012347 
L 220.057027 195.780975 
L 220.456732 194.628032 
L 220.856437 192.706462 
L 222.055552 184.443707 
L 222.455257 177.718209 
L 223.654372 166.380942 
L 224.054077 167.918198 
L 224.453782 166.957413 
L 224.853487 163.114271 
L 225.253192 156.773088 
L 225.652897 153.698575 
L 226.052602 156.00446 
L 226.452307 145.243663 
L 226.852013 138.518165 
L 229.649948 117.573044 
L 230.049653 132.753453 
L 230.449358 128.525997 
L 230.849063 133.714238 
L 231.248768 126.412269 
L 231.648473 122.953442 
L 232.048178 106.62009 
L 232.447883 98.933807 
L 232.847588 106.62009 
L 233.247293 107.580876 
L 233.646998 105.851462 
L 234.046703 89.325953 
L 234.446408 86.827911 
L 234.846113 91.631838 
L 235.245818 103.161263 
L 235.645524 105.274991 
L 236.045229 106.235776 
L 236.444934 104.122048 
L 236.844639 105.659305 
L 237.244344 105.274991 
L 237.644049 99.702436 
L 238.043754 92.400467 
L 238.443459 92.016152 
L 238.843164 96.435765 
L 239.242869 105.851462 
L 239.642574 112.57696 
L 240.042279 113.729902 
L 240.441984 118.918143 
L 240.841689 127.949526 
L 241.241394 130.255411 
L 241.641099 134.29071 
L 242.040804 132.561296 
L 242.440509 136.21228 
L 242.840214 136.21228 
L 243.239919 135.443652 
L 243.639624 130.831882 
L 244.039329 137.749537 
L 244.439035 135.635809 
L 244.83874 126.027955 
L 245.238445 123.337756 
L 245.63815 131.984825 
L 246.43756 160.231915 
L 247.23697 198.663331 
L 247.636675 199.816273 
L 248.03638 198.855488 
L 248.436085 208.271185 
L 248.83579 194.628032 
L 249.235495 172.914282 
L 249.6352 160.039758 
L 250.034905 156.773088 
L 250.43461 158.886816 
L 250.834315 167.14957 
L 251.23402 157.92603 
L 251.633725 158.502502 
L 252.03343 164.075057 
L 252.433135 167.341727 
L 252.83284 174.451539 
L 253.232546 188.86332 
L 253.632251 192.898619 
L 254.031956 202.506473 
L 254.831366 209.616284 
L 255.231071 200.200588 
L 255.630776 199.816273 
L 256.030481 195.012347 
L 256.829891 177.718209 
L 257.229596 176.37311 
L 258.029006 185.980964 
L 258.828416 189.247634 
L 259.228121 191.169205 
L 259.627826 186.365278 
L 260.027531 174.067225 
L 260.427236 168.878984 
L 260.826941 166.188785 
L 261.626351 145.820134 
L 262.425762 131.216196 
L 263.225172 126.988741 
L 263.624877 126.988741 
L 264.024582 127.757369 
L 264.424287 128.141683 
L 264.823992 130.639725 
L 265.223697 134.098553 
L 265.623402 131.024039 
L 266.023107 129.294626 
L 266.422812 132.369139 
L 266.822517 142.937778 
L 267.222222 146.973077 
L 267.621927 153.890732 
L 268.021632 156.196617 
L 268.421337 149.663276 
L 268.821042 155.043674 
L 269.220747 155.235831 
L 269.620452 160.424072 
L 270.020157 157.541716 
L 270.419862 166.188785 
L 270.819568 164.075057 
L 271.219273 170.800555 
L 272.018683 174.259382 
L 272.418388 179.255466 
L 272.818093 189.055477 
L 273.217798 192.12999 
L 273.617503 187.326063 
L 274.816618 195.396661 
L 275.616028 200.777059 
L 276.015733 210.384913 
L 276.415438 212.882955 
L 276.815143 209.616284 
L 278.014258 217.302568 
L 278.413963 222.490809 
L 278.813668 224.41238 
L 279.213374 227.102579 
L 280.012784 229.984935 
L 280.412489 232.29082 
L 282.011309 236.133961 
L 327.977389 236.133961 
L 328.377094 233.443762 
L 329.176504 230.561406 
L 329.975914 226.526107 
L 331.574735 216.726096 
L 334.37267 195.973132 
L 341.567361 136.404438 
L 343.565886 120.071086 
L 347.163231 93.553409 
L 347.962641 87.404382 
L 351.160282 67.80436 
L 353.158807 57.812192 
L 355.557037 47.820024 
L 357.155857 42.82394 
L 358.754678 39.172956 
L 360.753203 36.482757 
L 361.152908 36.098442 
L 361.552613 35.906285 
L 361.952318 34.9455 
L 363.151433 34.9455 
L 363.551138 35.137657 
L 365.149958 36.674914 
L 367.148484 40.325898 
L 367.548189 40.710212 
L 369.147009 45.514139 
L 370.346124 49.933752 
L 371.944944 56.467093 
L 373.543764 64.53769 
L 375.941995 77.796529 
L 377.540815 88.173011 
L 381.537865 117.765201 
L 387.133736 164.267214 
L 390.731081 194.435875 
L 392.729607 210.192756 
L 394.728132 223.835908 
L 395.527542 228.447678 
L 396.326952 232.29082 
L 396.726657 233.635919 
L 397.126362 236.133961 
L 421.108665 236.133961 
L 421.108665 236.133961 
" clip-path="url(#p7895a70591)" style="fill: none; stroke: #1f77b4; stroke-width: 1.2; stroke-linecap: square"/>
   </g>
   <g id="line2d_20">
    <path d="M 76.16321 236.092923 
L 98.146988 236.092923 
L 98.546693 232.453221 
L 100.145513 224.502299 
L 102.144038 214.230076 
L 102.943448 209.641809 
L 105.341679 192.586479 
L 109.738434 159.109372 
L 112.536369 137.525713 
L 116.933125 103.161417 
L 117.33283 100.873767 
L 117.732535 96.007562 
L 118.531945 91.966413 
L 119.73106 85.787913 
L 123.328406 68.903564 
L 124.127816 65.917724 
L 124.927226 64.246591 
L 125.726636 63.445604 
L 126.526046 63.057516 
L 127.725161 62.807104 
L 129.723686 62.67809 
L 134.919852 62.64042 
L 138.117492 62.77037 
L 139.316607 62.981785 
L 140.116018 63.335997 
L 140.515723 63.633975 
L 140.915428 64.138983 
L 141.315133 64.82949 
L 141.714838 65.867782 
L 142.514248 69.025365 
L 143.313658 73.82169 
L 145.312183 85.573542 
L 146.511298 92.472326 
L 149.309234 110.116312 
L 151.307759 124.820498 
L 154.505399 150.371767 
L 159.30186 187.817073 
L 160.500975 197.313527 
L 162.099795 208.528916 
L 166.096846 231.306537 
L 167.695666 235.752916 
L 168.095371 236.075284 
L 174.890357 236.092923 
L 213.262041 236.092923 
L 213.661746 232.000548 
L 214.061451 230.405266 
L 217.658796 211.430042 
L 218.857912 203.035268 
L 220.057027 194.634512 
L 220.456732 195.569835 
L 220.856437 194.408089 
L 221.256142 192.52099 
L 222.455257 183.793621 
L 222.854962 177.279557 
L 224.054077 166.214457 
L 224.453782 167.982135 
L 224.853487 166.996504 
L 225.253192 163.319111 
L 225.652897 157.139968 
L 226.052602 154.499191 
L 226.452307 157.102689 
L 226.852013 146.328459 
L 227.251718 139.46005 
L 228.051128 133.125617 
L 229.250243 122.579883 
L 230.049653 115.921037 
L 230.449358 135.474463 
L 230.849063 127.986074 
L 231.248768 135.362754 
L 231.648473 124.978386 
L 232.048178 121.658054 
L 232.447883 103.697881 
L 232.847588 96.265481 
L 233.247293 109.091063 
L 233.646998 107.540765 
L 234.046703 104.767646 
L 234.446408 86.924213 
L 234.846113 86.369451 
L 235.245818 93.475731 
L 235.645524 105.731564 
L 236.045229 105.369638 
L 236.444934 106.406552 
L 236.844639 102.768167 
L 237.244344 105.684931 
L 237.644049 104.543095 
L 238.443459 89.747911 
L 238.843164 91.912791 
L 239.242869 98.054393 
L 239.642574 108.38563 
L 240.042279 114.11838 
L 240.441984 113.743284 
L 240.841689 119.807216 
L 241.241394 129.908606 
L 241.641099 131.272081 
L 242.040804 135.780407 
L 242.440509 132.616783 
L 242.840214 137.750417 
L 243.239919 137.175939 
L 243.639624 135.983806 
L 244.039329 130.225292 
L 244.439035 140.230612 
L 244.83874 136.304255 
L 245.238445 123.83575 
L 245.63815 122.799613 
L 246.837265 160.21234 
L 247.636675 193.179337 
L 248.03638 197.716823 
L 248.436085 198.649019 
L 248.83579 207.297754 
L 249.235495 194.669946 
L 250.034905 160.754588 
L 250.43461 158.107181 
L 250.834315 160.130155 
L 251.23402 167.87896 
L 251.633725 158.442894 
L 252.03343 159.366328 
L 252.433135 164.599934 
L 252.83284 167.743053 
L 253.232546 174.493345 
L 253.632251 188.109868 
L 254.031956 193.05339 
L 254.431661 202.015173 
L 255.231071 209.270703 
L 255.630776 199.764416 
L 256.030481 199.414073 
L 256.430186 193.823703 
L 257.229596 176.948455 
L 257.629301 175.687686 
L 258.428711 186.652042 
L 259.228121 189.534019 
L 259.627826 191.414098 
L 260.027531 186.061526 
L 260.427236 173.838224 
L 260.826941 168.198571 
L 261.226646 165.902061 
L 262.425762 138.506648 
L 262.825467 131.684176 
L 263.225172 129.95506 
L 263.624877 126.825951 
L 264.024582 127.007353 
L 264.424287 128.025332 
L 264.823992 128.289156 
L 265.623402 135.578904 
L 266.023107 130.621086 
L 266.422812 128.958485 
L 266.822517 133.727344 
L 267.222222 145.868145 
L 267.621927 148.393836 
L 268.021632 154.807988 
L 268.421337 156.85266 
L 268.821042 150.319248 
L 269.220747 156.327141 
L 269.620452 156.258238 
L 270.020157 161.185687 
L 270.419862 158.08775 
L 270.819568 166.771578 
L 271.219273 164.270281 
L 271.618978 171.111649 
L 272.018683 172.486195 
L 272.418388 174.390769 
L 272.818093 179.299635 
L 273.217798 189.396233 
L 273.617503 192.799619 
L 274.017208 187.142711 
L 274.416913 189.502531 
L 275.616028 198.847834 
L 276.015733 201.349841 
L 276.415438 209.607999 
L 276.815143 212.139126 
L 277.214848 209.561039 
L 277.614553 210.921536 
L 278.413963 216.576717 
L 279.213374 223.251311 
L 279.613079 226.013539 
L 280.812194 231.484026 
L 281.611604 233.332494 
L 282.011309 234.054811 
L 282.411014 235.391537 
L 282.810719 236.071755 
L 290.00541 236.092923 
L 328.377094 236.092923 
L 328.776799 231.571707 
L 329.576209 228.034456 
L 332.77385 210.200872 
L 335.17208 192.169029 
L 336.371195 182.270113 
L 338.36972 166.199146 
L 339.16913 159.780392 
L 340.767951 147.453938 
L 341.967066 137.091272 
L 343.565886 122.342133 
L 344.765001 112.190397 
L 347.163231 95.055309 
L 348.762051 84.906294 
L 349.561462 80.780728 
L 349.961167 78.985818 
L 351.559987 69.359392 
L 352.359397 65.793022 
L 352.759102 64.632539 
L 353.158807 63.89406 
L 353.558512 63.419797 
L 354.357922 62.953874 
L 355.557037 62.711621 
L 357.955268 62.607645 
L 367.148484 62.589313 
L 371.145534 62.692521 
L 372.344649 62.900838 
L 373.144059 63.343568 
L 373.543764 63.835875 
L 373.943469 64.65604 
L 374.343174 65.940591 
L 375.142585 69.964417 
L 381.93757 118.118282 
L 392.329901 204.513792 
L 393.928722 215.065671 
L 396.726657 231.680458 
L 397.126362 232.775758 
L 397.925772 235.499173 
L 398.325477 236.074432 
L 405.520168 236.092923 
L 421.108665 236.092923 
L 421.108665 236.092923 
" clip-path="url(#p7895a70591)" style="fill: none; stroke: #ff7f0e; stroke-width: 1.2; stroke-linecap: square"/>
   </g>
   <g id="line2d_21">
    <path d="M 76.16321 236.11916 
L 98.146988 236.11916 
L 98.546693 232.350491 
L 98.946398 231.179054 
L 100.545218 224.023325 
L 101.744333 216.389345 
L 102.543743 211.942676 
L 103.343153 207.275563 
L 104.542268 198.056874 
L 107.340204 175.812684 
L 108.139614 169.103006 
L 111.337254 146.906097 
L 113.335779 129.924766 
L 114.13519 123.54122 
L 115.334305 115.597458 
L 116.933125 106.600152 
L 117.33283 104.534158 
L 117.732535 101.091039 
L 119.73106 89.377874 
L 121.729585 78.819265 
L 125.326931 61.697974 
L 126.126341 59.766251 
L 126.925751 58.725073 
L 127.725161 58.167817 
L 128.524571 57.880381 
L 130.123391 57.625723 
L 133.321032 57.502608 
L 136.118967 57.626838 
L 137.318082 57.809166 
L 138.117492 58.064495 
L 138.916902 58.558492 
L 139.316607 58.934332 
L 139.716313 59.476936 
L 140.515723 61.293252 
L 141.315133 64.44703 
L 142.913953 73.039995 
L 144.512773 81.812708 
L 147.710413 99.806066 
L 150.908054 119.531759 
L 152.107169 129.244684 
L 156.104219 164.768187 
L 157.303335 173.919752 
L 158.50245 183.326049 
L 161.300385 203.483115 
L 162.099795 208.728223 
L 164.498025 225.372915 
L 165.297435 228.961287 
L 166.496551 232.930589 
L 166.896256 233.474018 
L 167.295961 236.13362 
L 213.262041 236.11916 
L 213.661746 232.096953 
L 214.061451 230.888144 
L 215.260566 225.802219 
L 216.059976 220.740804 
L 216.459681 217.923878 
L 217.259091 213.606652 
L 218.458207 206.352983 
L 220.057027 193.775239 
L 220.456732 196.312992 
L 220.856437 194.551854 
L 221.655847 189.067366 
L 222.055552 185.9399 
L 222.455257 183.729023 
L 222.854962 175.859512 
L 224.054077 164.049711 
L 224.453782 168.484447 
L 224.853487 166.882779 
L 225.253192 163.008264 
L 225.652897 155.725324 
L 226.052602 154.933491 
L 226.452307 159.718452 
L 226.852013 142.696736 
L 227.251718 138.638892 
L 227.651423 136.156209 
L 228.850538 125.091881 
L 230.049653 116.746278 
L 230.449358 132.710575 
L 230.849063 125.423806 
L 231.248768 133.838841 
L 231.648473 123.561542 
L 232.048178 121.754401 
L 232.447883 109.527139 
L 232.847588 103.280439 
L 233.247293 107.93215 
L 233.646998 107.655596 
L 234.046703 106.204704 
L 234.446408 95.679915 
L 234.846113 92.50452 
L 235.245818 94.117038 
L 235.645524 102.671147 
L 236.444934 105.699147 
L 236.844639 105.042723 
L 237.244344 106.417384 
L 237.644049 106.083127 
L 238.043754 102.121393 
L 238.443459 96.774653 
L 238.843164 95.646365 
L 239.242869 98.09563 
L 240.042279 110.380604 
L 240.441984 111.833908 
L 240.841689 117.113712 
L 241.241394 126.521895 
L 241.641099 128.713533 
L 242.040804 134.035794 
L 242.440509 130.965278 
L 242.840214 136.791922 
L 243.639624 134.997502 
L 244.039329 129.180945 
L 244.439035 139.523449 
L 244.83874 134.511537 
L 245.238445 123.429396 
L 245.63815 122.611491 
L 246.037855 132.483376 
L 247.636675 192.609484 
L 248.03638 198.768547 
L 248.436085 198.813636 
L 248.83579 207.637514 
L 249.235495 196.281982 
L 249.6352 171.322688 
L 250.034905 159.238402 
L 250.43461 157.077955 
L 250.834315 161.158043 
L 251.23402 171.880001 
L 251.633725 156.847939 
L 252.03343 161.391137 
L 252.433135 167.703219 
L 252.83284 170.101341 
L 253.232546 177.335344 
L 253.632251 189.766816 
L 254.031956 194.844159 
L 254.431661 201.688283 
L 255.231071 209.691823 
L 255.630776 200.638913 
L 256.030481 199.982868 
L 256.829891 185.340971 
L 257.229596 175.96263 
L 257.629301 175.023306 
L 258.428711 188.403227 
L 259.228121 190.73169 
L 259.627826 192.629874 
L 260.027531 185.888369 
L 260.427236 171.696237 
L 260.826941 166.249789 
L 261.226646 163.212373 
L 262.026057 144.770079 
L 262.825467 131.387332 
L 263.225172 129.278811 
L 263.624877 125.930539 
L 264.024582 125.892292 
L 264.424287 126.579043 
L 264.823992 126.822198 
L 265.223697 129.903994 
L 265.623402 133.976813 
L 266.023107 129.106446 
L 266.422812 128.003418 
L 266.822517 132.314393 
L 267.222222 145.559079 
L 267.621927 148.344148 
L 268.021632 157.002089 
L 268.421337 158.357615 
L 268.821042 147.818197 
L 269.220747 159.400375 
L 269.620452 157.348829 
L 270.020157 164.617511 
L 270.419862 157.588747 
L 270.819568 170.424926 
L 271.219273 164.841844 
L 271.618978 173.906082 
L 272.018683 174.486143 
L 272.418388 176.664555 
L 272.818093 181.256736 
L 273.217798 191.327775 
L 273.617503 194.512604 
L 274.017208 187.14091 
L 275.216323 197.517448 
L 276.015733 201.883009 
L 276.415438 210.649636 
L 276.815143 213.807547 
L 277.214848 209.715088 
L 277.614553 211.572584 
L 278.413963 218.056876 
L 278.813668 222.854618 
L 279.613079 227.934529 
L 280.012784 229.303522 
L 280.412489 230.204152 
L 280.812194 232.375533 
L 281.211899 232.650002 
L 281.611604 233.829823 
L 282.011309 234.460202 
L 282.411014 236.129387 
L 293.20305 236.11916 
L 328.377094 236.11916 
L 328.776799 231.855762 
L 329.576209 228.948239 
L 329.975914 226.641731 
L 330.375619 225.258484 
L 332.374145 212.346596 
L 333.173555 207.582471 
L 333.972965 201.192483 
L 335.571785 188.405679 
L 336.371195 181.994045 
L 337.970015 167.571714 
L 339.16913 159.314308 
L 339.96854 153.837902 
L 341.967066 136.404929 
L 343.166181 125.088845 
L 344.365296 116.461088 
L 345.564411 109.080431 
L 347.163231 99.360972 
L 352.359397 66.434867 
L 353.158807 62.068145 
L 353.558512 60.519023 
L 353.958217 59.459593 
L 354.357922 58.74842 
L 355.157332 58.008884 
L 355.956742 57.6498 
L 357.155857 57.462864 
L 359.953793 57.351803 
L 366.748779 57.3514 
L 369.946419 57.49667 
L 371.145534 57.759407 
L 371.944944 58.209977 
L 372.344649 58.623453 
L 372.744354 59.299592 
L 373.144059 60.337221 
L 373.543764 61.932663 
L 374.343174 66.590773 
L 375.54229 74.427419 
L 379.139635 97.376518 
L 382.337275 119.301362 
L 383.136685 125.972172 
L 386.334326 156.936429 
L 387.133736 164.053724 
L 387.933146 169.996314 
L 389.132261 180.305816 
L 389.931671 186.548711 
L 391.930196 201.968089 
L 392.729607 207.356955 
L 393.928722 216.774655 
L 395.927247 229.164499 
L 396.726657 232.489178 
L 397.126362 233.17491 
L 397.526067 236.132075 
L 409.517218 236.11916 
L 421.108665 236.11916 
L 421.108665 236.11916 
" clip-path="url(#p7895a70591)" style="fill: none; stroke: #2ca02c; stroke-width: 1.2; stroke-linecap: square"/>
   </g>
   <g id="line2d_22">
    <path d="M 76.16321 236.18197 
L 98.146988 236.18197 
L 98.546693 232.252949 
L 98.946398 231.255396 
L 99.346103 228.718451 
L 99.745808 227.041986 
L 100.145513 226.734206 
L 100.944923 222.026784 
L 102.144038 215.411426 
L 103.343153 205.890336 
L 104.542268 197.54304 
L 106.940499 176.904712 
L 108.139614 167.320052 
L 114.13519 122.728714 
L 115.73401 112.777737 
L 117.33283 104.106676 
L 117.732535 100.306527 
L 118.531945 95.962117 
L 120.53047 84.685859 
L 122.12929 75.091236 
L 123.728111 66.071017 
L 124.527521 62.847573 
L 125.326931 60.729771 
L 126.126341 59.31267 
L 126.925751 58.392372 
L 127.725161 57.749997 
L 128.524571 57.340362 
L 129.723686 56.954088 
L 131.322507 56.682808 
L 133.720737 56.614835 
L 135.319557 56.807461 
L 136.518672 57.103836 
L 137.717787 57.640788 
L 138.517197 58.262147 
L 139.316607 59.073031 
L 140.116018 60.36958 
L 140.515723 61.160293 
L 141.315133 63.457815 
L 142.114543 66.662102 
L 142.913953 70.82555 
L 147.310708 98.852678 
L 150.908054 119.656173 
L 153.705989 140.40803 
L 155.304809 153.496537 
L 156.903629 166.002615 
L 162.899205 213.76961 
L 163.698615 218.152494 
L 164.09832 220.317095 
L 164.89773 225.634864 
L 165.69714 229.54111 
L 166.096846 232.171543 
L 166.496551 233.532449 
L 166.896256 233.863262 
L 167.295961 236.526089 
L 167.695666 236.237379 
L 168.095371 236.131136 
L 170.093896 236.181966 
L 213.262041 236.18197 
L 213.661746 231.918042 
L 214.061451 231.00264 
L 214.461156 228.486538 
L 214.860861 226.900607 
L 215.260566 226.315785 
L 216.059976 221.65459 
L 216.859386 217.368337 
L 217.658796 211.040706 
L 218.857912 202.280928 
L 219.657322 196.31531 
L 220.057027 192.957674 
L 220.456732 193.976209 
L 220.856437 192.711842 
L 221.256142 190.536432 
L 222.455257 180.99991 
L 222.854962 173.191957 
L 223.254667 169.718902 
L 223.654372 167.35979 
L 224.054077 161.933658 
L 224.453782 165.359723 
L 224.853487 163.563957 
L 225.253192 159.075695 
L 225.652897 152.318925 
L 226.052602 150.835882 
L 226.452307 154.872639 
L 226.852013 140.218463 
L 227.251718 136.584596 
L 227.651423 134.360905 
L 228.450833 126.957688 
L 230.049653 116.250112 
L 230.449358 131.947527 
L 230.849063 124.825167 
L 231.248768 131.71471 
L 231.648473 123.043879 
L 232.048178 121.095648 
L 232.447883 108.495774 
L 232.847588 102.946335 
L 233.247293 111.064672 
L 233.646998 107.209311 
L 234.046703 105.685131 
L 234.446408 94.144036 
L 234.846113 91.089456 
L 235.245818 94.754333 
L 235.645524 106.060039 
L 236.045229 104.906556 
L 236.444934 106.358747 
L 236.844639 104.48952 
L 237.244344 107.092497 
L 237.644049 105.815433 
L 238.443459 95.820267 
L 238.843164 95.486709 
L 239.242869 99.50289 
L 239.642574 108.275869 
L 240.042279 112.434906 
L 240.441984 112.224582 
L 240.841689 118.098939 
L 241.241394 126.521578 
L 241.641099 127.746039 
L 242.040804 132.01263 
L 242.440509 129.169308 
L 242.840214 134.292773 
L 243.639624 132.342481 
L 244.039329 127.510922 
L 244.439035 137.040735 
L 244.83874 131.948507 
L 245.238445 122.707942 
L 245.63815 122.960648 
L 246.037855 131.579546 
L 246.837265 157.659908 
L 247.636675 192.283007 
L 248.03638 198.104104 
L 248.436085 197.779885 
L 248.83579 207.105625 
L 249.235495 192.803432 
L 249.6352 168.983767 
L 250.034905 154.081574 
L 250.43461 154.519043 
L 250.834315 157.42251 
L 251.23402 166.01195 
L 251.633725 153.183325 
L 252.03343 156.947928 
L 252.433135 162.989669 
L 252.83284 164.977991 
L 253.232546 172.661212 
L 253.632251 186.832154 
L 254.031956 191.42061 
L 254.431661 200.392789 
L 255.231071 208.847992 
L 255.630776 198.61754 
L 256.030481 198.308227 
L 256.430186 192.913772 
L 257.229596 172.807366 
L 257.629301 172.435062 
L 258.029006 179.621141 
L 258.428711 183.993406 
L 259.228121 187.205969 
L 259.627826 189.237509 
L 260.027531 183.278912 
L 260.427236 169.057559 
L 260.826941 164.239048 
L 261.226646 162.329986 
L 261.626351 149.868223 
L 262.425762 135.512027 
L 262.825467 130.112196 
L 263.225172 128.25813 
L 263.624877 124.768179 
L 264.024582 124.975799 
L 264.424287 125.600281 
L 264.823992 125.730068 
L 265.623402 131.955223 
L 266.023107 127.456843 
L 266.422812 126.63424 
L 266.822517 130.735815 
L 267.222222 141.892872 
L 267.621927 144.158775 
L 268.021632 152.204707 
L 268.421337 153.606647 
L 268.821042 144.869406 
L 269.220747 155.3444 
L 269.620452 152.396007 
L 270.020157 159.224368 
L 270.419862 153.746103 
L 270.819568 165.49431 
L 271.219273 160.555008 
L 271.618978 169.166355 
L 272.018683 169.976566 
L 272.418388 171.582993 
L 272.818093 177.283575 
L 273.217798 187.464349 
L 273.617503 190.609132 
L 274.017208 184.600507 
L 276.015733 199.479635 
L 276.415438 209.517887 
L 276.815143 212.683805 
L 277.214848 208.17815 
L 278.014258 214.701114 
L 278.413963 216.792654 
L 278.813668 220.901138 
L 279.613079 226.108866 
L 280.412489 229.529724 
L 280.812194 232.88744 
L 281.211899 233.70636 
L 281.611604 233.709104 
L 282.011309 234.649662 
L 282.411014 236.215704 
L 282.810719 236.006302 
L 283.210424 236.074579 
L 283.610129 236.43477 
L 284.009834 236.18197 
L 328.377094 236.18197 
L 328.776799 231.57466 
L 329.176504 230.421692 
L 329.576209 228.064163 
L 329.975914 226.446506 
L 330.375619 225.617145 
L 331.175029 220.764202 
L 331.97444 216.212355 
L 333.57326 203.317024 
L 334.772375 194.012963 
L 337.57031 168.978291 
L 343.565886 121.37343 
L 344.365296 116.030733 
L 345.564411 108.567827 
L 347.163231 99.023391 
L 349.961167 80.631672 
L 351.559987 68.649928 
L 352.359397 64.02637 
L 353.158807 60.854366 
L 353.958217 58.946734 
L 354.757627 57.826689 
L 355.956742 56.812995 
L 357.155857 56.375061 
L 358.354973 56.156682 
L 361.152908 55.985931 
L 365.149958 55.998499 
L 367.947894 56.17071 
L 369.546714 56.53919 
L 370.346124 56.887129 
L 371.145534 57.416637 
L 371.944944 58.245403 
L 372.344649 58.81458 
L 373.144059 60.524413 
L 373.943469 63.311766 
L 374.742879 67.462494 
L 375.54229 72.345138 
L 379.939045 103.921212 
L 382.73698 122.307813 
L 385.135211 141.533356 
L 387.133736 159.093312 
L 388.732556 172.14208 
L 391.530491 196.246758 
L 393.928722 215.725406 
L 394.728132 219.884596 
L 395.527542 225.7243 
L 395.927247 227.506028 
L 396.726657 232.896296 
L 397.126362 233.744425 
L 397.526067 236.5455 
L 398.725182 236.007374 
L 399.124887 236.18197 
L 421.108665 236.18197 
L 421.108665 236.18197 
" clip-path="url(#p7895a70591)" style="fill: none; stroke: #d62728; stroke-width: 1.2; stroke-linecap: square"/>
   </g>
   <g id="line2d_23">
    <path d="M 76.16321 235.993315 
L 98.146988 235.993315 
L 98.546693 234.012568 
L 98.946398 232.897197 
L 100.145513 227.910106 
L 101.344628 221.618548 
L 103.343153 208.961271 
L 105.741384 191.766591 
L 110.138139 157.884594 
L 115.334305 119.575032 
L 119.331355 92.108292 
L 121.729585 79.118819 
L 123.328406 71.930799 
L 124.927226 65.506709 
L 126.526046 60.380956 
L 127.725161 57.155918 
L 128.524571 55.434133 
L 129.723686 53.330501 
L 130.523096 52.358669 
L 131.322507 51.417716 
L 131.722212 51.192516 
L 132.121917 50.666236 
L 133.321032 50.586875 
L 134.120442 50.917174 
L 134.919852 51.629154 
L 135.719262 52.71616 
L 137.318082 55.662512 
L 138.117492 57.676453 
L 139.716313 62.325443 
L 141.714838 69.939648 
L 142.913953 75.147797 
L 145.711888 89.695318 
L 148.509824 107.043143 
L 150.908054 123.31243 
L 155.704514 159.807056 
L 160.10127 193.94218 
L 162.099795 208.331419 
L 164.498025 223.158163 
L 165.69714 229.16738 
L 166.496551 232.104018 
L 167.295961 234.684113 
L 167.695666 235.294356 
L 168.495076 235.935708 
L 169.294486 235.993315 
L 213.262041 235.993315 
L 213.661746 233.84749 
L 214.061451 232.721711 
L 214.860861 229.586805 
L 216.459681 221.081933 
L 218.058501 210.836063 
L 220.057027 196.475882 
L 220.456732 196.777861 
L 220.856437 195.640566 
L 221.256142 193.973584 
L 222.455257 186.069729 
L 222.854962 179.977158 
L 224.054077 168.810303 
L 224.453782 169.63722 
L 224.853487 168.56722 
L 225.253192 165.347686 
L 225.652897 159.516768 
L 226.052602 156.337954 
L 226.452307 157.809034 
L 226.852013 148.540721 
L 227.251718 142.263441 
L 228.051128 135.664779 
L 230.049653 120.913228 
L 230.449358 133.604536 
L 230.849063 130.603273 
L 231.248768 135.774047 
L 231.648473 129.201948 
L 232.048178 126.500162 
L 232.447883 111.663416 
L 232.847588 104.180397 
L 233.247293 109.285117 
L 233.646998 110.272529 
L 234.046703 109.157726 
L 234.446408 94.656577 
L 234.846113 91.628437 
L 235.245818 94.643247 
L 235.645524 104.909393 
L 236.045229 107.39653 
L 236.444934 108.922949 
L 236.844639 107.17552 
L 237.244344 108.6098 
L 237.644049 108.252897 
L 238.043754 103.593847 
L 238.443459 96.930923 
L 238.843164 95.894009 
L 239.242869 99.307426 
L 240.042279 114.077553 
L 240.441984 115.932215 
L 240.841689 120.78372 
L 241.241394 128.945789 
L 241.641099 131.837142 
L 242.040804 135.918791 
L 242.440509 134.730148 
L 242.840214 138.143786 
L 243.239919 138.205411 
L 243.639624 137.87319 
L 244.039329 133.775508 
L 244.439035 139.485882 
L 244.83874 137.772342 
L 245.238445 129.898929 
L 245.63815 126.734259 
L 246.037855 133.581592 
L 246.837265 157.682125 
L 247.636675 188.565892 
L 248.436085 197.132018 
L 248.83579 206.726127 
L 249.235495 196.480749 
L 249.6352 177.708582 
L 250.034905 164.446289 
L 250.43461 160.001628 
L 250.834315 160.97677 
L 251.23402 167.824026 
L 251.633725 160.306284 
L 252.03343 160.719028 
L 252.83284 168.311327 
L 253.232546 174.767201 
L 253.632251 186.451393 
L 254.031956 190.13535 
L 254.431661 198.871541 
L 255.231071 208.048802 
L 255.630776 201.643974 
L 256.030481 201.125818 
L 256.430186 196.399613 
L 257.229596 180.556573 
L 257.629301 178.473387 
L 258.428711 186.397801 
L 259.627826 191.718889 
L 260.027531 187.848352 
L 260.427236 177.13958 
L 260.826941 171.716106 
L 261.226646 168.479576 
L 262.425762 141.42041 
L 262.825467 135.084061 
L 263.624877 130.044067 
L 264.024582 129.763028 
L 264.823992 130.578492 
L 265.223697 132.751877 
L 265.623402 135.869088 
L 266.023107 133.577 
L 266.422812 132.102531 
L 266.822517 134.444051 
L 267.222222 143.697675 
L 267.621927 147.902566 
L 268.021632 154.634643 
L 268.421337 157.111626 
L 268.821042 152.170653 
L 269.220747 156.533595 
L 269.620452 156.668458 
L 270.020157 161.623799 
L 270.419862 159.230848 
L 270.819568 166.917175 
L 271.219273 165.304474 
L 271.618978 171.645911 
L 272.018683 173.16351 
L 272.418388 175.350296 
L 272.818093 179.688761 
L 273.217798 188.516578 
L 273.617503 191.124223 
L 274.017208 188.648588 
L 274.816618 193.078693 
L 276.015733 200.973697 
L 276.415438 208.65745 
L 276.815143 211.011041 
L 277.214848 209.791743 
L 278.413963 217.108156 
L 278.813668 221.009501 
L 279.213374 222.978738 
L 280.012784 227.576 
L 281.211899 232.365134 
L 282.011309 234.486307 
L 282.411014 235.295443 
L 282.810719 235.691708 
L 283.610129 235.970296 
L 285.608654 235.993315 
L 328.377094 235.993315 
L 328.776799 233.682412 
L 329.576209 230.820973 
L 330.375619 227.010527 
L 331.97444 217.559318 
L 334.772375 197.416791 
L 339.96854 155.466199 
L 342.366771 135.983931 
L 347.163231 100.242455 
L 349.561462 83.893596 
L 352.759102 66.170768 
L 354.357922 58.982844 
L 355.157332 55.945252 
L 355.557037 53.950104 
L 357.155857 48.757251 
L 357.955268 46.660491 
L 359.154383 44.00489 
L 360.753203 41.668999 
L 361.552613 40.906931 
L 361.952318 40.693629 
L 362.352023 39.833822 
L 363.551138 39.719942 
L 363.950843 39.867911 
L 365.549663 41.314316 
L 367.548189 44.804061 
L 367.947894 45.220416 
L 369.546714 49.764366 
L 370.745829 54.026496 
L 372.344649 60.374788 
L 373.943469 68.161177 
L 376.3417 81.043695 
L 377.94052 91.107422 
L 381.537865 116.877929 
L 384.335801 138.797412 
L 389.931671 184.906777 
L 393.129312 209.822953 
L 395.127837 222.883184 
L 395.927247 227.357872 
L 396.726657 231.115043 
L 397.925772 235.065617 
L 398.725182 235.918414 
L 399.524592 235.993315 
L 421.108665 235.993315 
L 421.108665 235.993315 
" clip-path="url(#p7895a70591)" style="fill: none; stroke: #9467bd; stroke-width: 1.2; stroke-linecap: square"/>
   </g>
   <g id="patch_3">
    <path d="M 58.915938 246.6255 
L 58.915938 24.8655 
" style="fill: none; stroke: #000000; stroke-width: 0.8; stroke-linejoin: miter; stroke-linecap: square"/>
   </g>
   <g id="patch_4">
    <path d="M 438.355937 246.6255 
L 438.355937 24.8655 
" style="fill: none; stroke: #000000; stroke-width: 0.8; stroke-linejoin: miter; stroke-linecap: square"/>
   </g>
   <g id="patch_5">
    <path d="M 58.915938 246.6255 
L 438.355938 246.6255 
" style="fill: none; stroke: #000000; stroke-width: 0.8; stroke-linejoin: miter; stroke-linecap: square"/>
   </g>
   <g id="patch_6">
    <path d="M 58.915938 24.8655 
L 438.355938 24.8655 
" style="fill: none; stroke: #000000; stroke-width: 0.8; stroke-linejoin: miter; stroke-linecap: square"/>
   </g>
   <g id="text_12">
    <!-- Forecasting Solar Irradiance at Summer Season -->
    <g transform="translate(88.849562 18.8655) scale(0.168 -0.168)">
     <defs>
      <path id="TimesNewRomanPSMT-46" d="M 1309 4006 
L 1309 2341 
L 2081 2341 
Q 2347 2341 2470 2458 
Q 2594 2575 2634 2922 
L 2750 2922 
L 2750 1488 
L 2634 1488 
Q 2631 1734 2570 1850 
Q 2509 1966 2401 2023 
Q 2294 2081 2081 2081 
L 1309 2081 
L 1309 750 
Q 1309 428 1350 325 
Q 1381 247 1481 191 
Q 1619 116 1769 116 
L 1922 116 
L 1922 0 
L 103 0 
L 103 116 
L 253 116 
Q 516 116 634 269 
Q 709 369 709 750 
L 709 3488 
Q 709 3809 669 3913 
Q 638 3991 541 4047 
Q 406 4122 253 4122 
L 103 4122 
L 103 4238 
L 3256 4238 
L 3297 3306 
L 3188 3306 
Q 3106 3603 2998 3742 
Q 2891 3881 2733 3943 
Q 2575 4006 2244 4006 
L 1309 4006 
z
" transform="scale(0.015625)"/>
      <path id="TimesNewRomanPSMT-6f" d="M 1600 2947 
Q 2250 2947 2644 2453 
Q 2978 2031 2978 1484 
Q 2978 1100 2793 706 
Q 2609 313 2286 112 
Q 1963 -88 1566 -88 
Q 919 -88 538 428 
Q 216 863 216 1403 
Q 216 1797 411 2186 
Q 606 2575 925 2761 
Q 1244 2947 1600 2947 
z
M 1503 2744 
Q 1338 2744 1170 2645 
Q 1003 2547 900 2300 
Q 797 2053 797 1666 
Q 797 1041 1045 587 
Q 1294 134 1700 134 
Q 2003 134 2200 384 
Q 2397 634 2397 1244 
Q 2397 2006 2069 2444 
Q 1847 2744 1503 2744 
z
" transform="scale(0.015625)"/>
      <path id="TimesNewRomanPSMT-67" d="M 966 1044 
Q 703 1172 562 1401 
Q 422 1631 422 1909 
Q 422 2334 742 2640 
Q 1063 2947 1563 2947 
Q 1972 2947 2272 2747 
L 2878 2747 
Q 3013 2747 3034 2739 
Q 3056 2731 3066 2713 
Q 3084 2684 3084 2613 
Q 3084 2531 3069 2500 
Q 3059 2484 3036 2475 
Q 3013 2466 2878 2466 
L 2506 2466 
Q 2681 2241 2681 1891 
Q 2681 1491 2375 1206 
Q 2069 922 1553 922 
Q 1341 922 1119 984 
Q 981 866 932 777 
Q 884 688 884 625 
Q 884 572 936 522 
Q 988 472 1138 450 
Q 1225 438 1575 428 
Q 2219 413 2409 384 
Q 2700 344 2873 169 
Q 3047 -6 3047 -263 
Q 3047 -616 2716 -925 
Q 2228 -1381 1444 -1381 
Q 841 -1381 425 -1109 
Q 191 -953 191 -784 
Q 191 -709 225 -634 
Q 278 -519 444 -313 
Q 466 -284 763 25 
Q 600 122 533 198 
Q 466 275 466 372 
Q 466 481 555 628 
Q 644 775 966 1044 
z
M 1509 2797 
Q 1278 2797 1122 2612 
Q 966 2428 966 2047 
Q 966 1553 1178 1281 
Q 1341 1075 1591 1075 
Q 1828 1075 1981 1253 
Q 2134 1431 2134 1813 
Q 2134 2309 1919 2591 
Q 1759 2797 1509 2797 
z
M 934 0 
Q 788 -159 713 -296 
Q 638 -434 638 -550 
Q 638 -700 819 -813 
Q 1131 -1006 1722 -1006 
Q 2284 -1006 2551 -807 
Q 2819 -609 2819 -384 
Q 2819 -222 2659 -153 
Q 2497 -84 2016 -72 
Q 1313 -53 934 0 
z
" transform="scale(0.015625)"/>
     </defs>
     <use xlink:href="#TimesNewRomanPSMT-46"/>
     <use xlink:href="#TimesNewRomanPSMT-6f" x="55.615234"/>
     <use xlink:href="#TimesNewRomanPSMT-72" x="105.615234"/>
     <use xlink:href="#TimesNewRomanPSMT-65" x="138.916016"/>
     <use xlink:href="#TimesNewRomanPSMT-63" x="183.300781"/>
     <use xlink:href="#TimesNewRomanPSMT-61" x="227.685547"/>
     <use xlink:href="#TimesNewRomanPSMT-73" x="272.070312"/>
     <use xlink:href="#TimesNewRomanPSMT-74" x="310.986328"/>
     <use xlink:href="#TimesNewRomanPSMT-69" x="338.769531"/>
     <use xlink:href="#TimesNewRomanPSMT-6e" x="366.552734"/>
     <use xlink:href="#TimesNewRomanPSMT-67" x="416.552734"/>
     <use xlink:href="#TimesNewRomanPSMT-20" x="466.552734"/>
     <use xlink:href="#TimesNewRomanPSMT-53" x="491.552734"/>
     <use xlink:href="#TimesNewRomanPSMT-6f" x="547.167969"/>
     <use xlink:href="#TimesNewRomanPSMT-6c" x="597.167969"/>
     <use xlink:href="#TimesNewRomanPSMT-61" x="624.951172"/>
     <use xlink:href="#TimesNewRomanPSMT-72" x="669.335938"/>
     <use xlink:href="#TimesNewRomanPSMT-20" x="702.636719"/>
     <use xlink:href="#TimesNewRomanPSMT-49" x="727.636719"/>
     <use xlink:href="#TimesNewRomanPSMT-72" x="760.9375"/>
     <use xlink:href="#TimesNewRomanPSMT-72" x="794.238281"/>
     <use xlink:href="#TimesNewRomanPSMT-61" x="827.539062"/>
     <use xlink:href="#TimesNewRomanPSMT-64" x="871.923828"/>
     <use xlink:href="#TimesNewRomanPSMT-69" x="921.923828"/>
     <use xlink:href="#TimesNewRomanPSMT-61" x="949.707031"/>
     <use xlink:href="#TimesNewRomanPSMT-6e" x="994.091797"/>
     <use xlink:href="#TimesNewRomanPSMT-63" x="1044.091797"/>
     <use xlink:href="#TimesNewRomanPSMT-65" x="1088.476562"/>
     <use xlink:href="#TimesNewRomanPSMT-20" x="1132.861328"/>
     <use xlink:href="#TimesNewRomanPSMT-61" x="1157.861328"/>
     <use xlink:href="#TimesNewRomanPSMT-74" x="1202.246094"/>
     <use xlink:href="#TimesNewRomanPSMT-20" x="1230.029297"/>
     <use xlink:href="#TimesNewRomanPSMT-53" x="1255.029297"/>
     <use xlink:href="#TimesNewRomanPSMT-75" x="1310.644531"/>
     <use xlink:href="#TimesNewRomanPSMT-6d" x="1360.644531"/>
     <use xlink:href="#TimesNewRomanPSMT-6d" x="1438.427734"/>
     <use xlink:href="#TimesNewRomanPSMT-65" x="1516.210938"/>
     <use xlink:href="#TimesNewRomanPSMT-72" x="1560.595703"/>
     <use xlink:href="#TimesNewRomanPSMT-20" x="1593.896484"/>
     <use xlink:href="#TimesNewRomanPSMT-53" x="1618.896484"/>
     <use xlink:href="#TimesNewRomanPSMT-65" x="1674.511719"/>
     <use xlink:href="#TimesNewRomanPSMT-61" x="1718.896484"/>
     <use xlink:href="#TimesNewRomanPSMT-73" x="1763.28125"/>
     <use xlink:href="#TimesNewRomanPSMT-6f" x="1802.197266"/>
     <use xlink:href="#TimesNewRomanPSMT-6e" x="1852.197266"/>
    </g>
   </g>
   <g id="legend_1">
    <g id="line2d_24">
     <path d="M 67.915938 37.3655 
L 77.915938 37.3655 
L 87.915938 37.3655 
" style="fill: none; stroke: #1f77b4; stroke-width: 1.2; stroke-linecap: square"/>
    </g>
    <g id="text_13">
     <!-- Actual Data -->
     <g transform="translate(95.915938 40.8655) scale(0.1 -0.1)">
      <defs>
       <path id="TimesNewRomanPSMT-41" d="M 2928 1419 
L 1288 1419 
L 1000 750 
Q 894 503 894 381 
Q 894 284 986 211 
Q 1078 138 1384 116 
L 1384 0 
L 50 0 
L 50 116 
Q 316 163 394 238 
Q 553 388 747 847 
L 2238 4334 
L 2347 4334 
L 3822 809 
Q 4000 384 4145 257 
Q 4291 131 4550 116 
L 4550 0 
L 2878 0 
L 2878 116 
Q 3131 128 3220 200 
Q 3309 272 3309 375 
Q 3309 513 3184 809 
L 2928 1419 
z
M 2841 1650 
L 2122 3363 
L 1384 1650 
L 2841 1650 
z
" transform="scale(0.015625)"/>
      </defs>
      <use xlink:href="#TimesNewRomanPSMT-41"/>
      <use xlink:href="#TimesNewRomanPSMT-63" x="72.216797"/>
      <use xlink:href="#TimesNewRomanPSMT-74" x="116.601562"/>
      <use xlink:href="#TimesNewRomanPSMT-75" x="144.384766"/>
      <use xlink:href="#TimesNewRomanPSMT-61" x="194.384766"/>
      <use xlink:href="#TimesNewRomanPSMT-6c" x="238.769531"/>
      <use xlink:href="#TimesNewRomanPSMT-20" x="266.552734"/>
      <use xlink:href="#TimesNewRomanPSMT-44" x="291.552734"/>
      <use xlink:href="#TimesNewRomanPSMT-61" x="363.769531"/>
      <use xlink:href="#TimesNewRomanPSMT-74" x="408.154297"/>
      <use xlink:href="#TimesNewRomanPSMT-61" x="435.9375"/>
     </g>
    </g>
    <g id="line2d_25">
     <path d="M 67.915938 51.504563 
L 77.915938 51.504563 
L 87.915938 51.504563 
" style="fill: none; stroke: #ff7f0e; stroke-width: 1.2; stroke-linecap: square"/>
    </g>
    <g id="text_14">
     <!-- CNN -->
     <g transform="translate(95.915938 55.004563) scale(0.1 -0.1)">
      <defs>
       <path id="TimesNewRomanPSMT-43" d="M 3853 4334 
L 3950 2894 
L 3853 2894 
Q 3659 3541 3300 3825 
Q 2941 4109 2438 4109 
Q 2016 4109 1675 3895 
Q 1334 3681 1139 3212 
Q 944 2744 944 2047 
Q 944 1472 1128 1050 
Q 1313 628 1683 403 
Q 2053 178 2528 178 
Q 2941 178 3256 354 
Q 3572 531 3950 1056 
L 4047 994 
Q 3728 428 3303 165 
Q 2878 -97 2294 -97 
Q 1241 -97 663 684 
Q 231 1266 231 2053 
Q 231 2688 515 3219 
Q 800 3750 1298 4042 
Q 1797 4334 2388 4334 
Q 2847 4334 3294 4109 
Q 3425 4041 3481 4041 
Q 3566 4041 3628 4100 
Q 3709 4184 3744 4334 
L 3853 4334 
z
" transform="scale(0.015625)"/>
       <path id="TimesNewRomanPSMT-4e" d="M -84 4238 
L 1066 4238 
L 3656 1059 
L 3656 3503 
Q 3656 3894 3569 3991 
Q 3453 4122 3203 4122 
L 3056 4122 
L 3056 4238 
L 4531 4238 
L 4531 4122 
L 4381 4122 
Q 4113 4122 4000 3959 
Q 3931 3859 3931 3503 
L 3931 -69 
L 3819 -69 
L 1025 3344 
L 1025 734 
Q 1025 344 1109 247 
Q 1228 116 1475 116 
L 1625 116 
L 1625 0 
L 150 0 
L 150 116 
L 297 116 
Q 569 116 681 278 
Q 750 378 750 734 
L 750 3681 
Q 566 3897 470 3965 
Q 375 4034 191 4094 
Q 100 4122 -84 4122 
L -84 4238 
z
" transform="scale(0.015625)"/>
      </defs>
      <use xlink:href="#TimesNewRomanPSMT-43"/>
      <use xlink:href="#TimesNewRomanPSMT-4e" x="66.699219"/>
      <use xlink:href="#TimesNewRomanPSMT-4e" x="138.916016"/>
     </g>
    </g>
    <g id="line2d_26">
     <path d="M 67.915938 65.643625 
L 77.915938 65.643625 
L 87.915938 65.643625 
" style="fill: none; stroke: #2ca02c; stroke-width: 1.2; stroke-linecap: square"/>
    </g>
    <g id="text_15">
     <!-- GRU -->
     <g transform="translate(95.915938 69.143625) scale(0.1 -0.1)">
      <defs>
       <path id="TimesNewRomanPSMT-47" d="M 3928 4334 
L 4038 2997 
L 3928 2997 
Q 3763 3497 3500 3750 
Q 3122 4116 2528 4116 
Q 1719 4116 1297 3475 
Q 944 2934 944 2188 
Q 944 1581 1178 1081 
Q 1413 581 1792 348 
Q 2172 116 2572 116 
Q 2806 116 3025 175 
Q 3244 234 3447 350 
L 3447 1575 
Q 3447 1894 3398 1992 
Q 3350 2091 3248 2142 
Q 3147 2194 2891 2194 
L 2891 2313 
L 4531 2313 
L 4531 2194 
L 4453 2194 
Q 4209 2194 4119 2031 
Q 4056 1916 4056 1575 
L 4056 278 
Q 3697 84 3347 -6 
Q 2997 -97 2569 -97 
Q 1341 -97 703 691 
Q 225 1281 225 2053 
Q 225 2613 494 3125 
Q 813 3734 1369 4063 
Q 1834 4334 2469 4334 
Q 2700 4334 2889 4296 
Q 3078 4259 3425 4131 
Q 3600 4066 3659 4066 
Q 3719 4066 3761 4120 
Q 3803 4175 3813 4334 
L 3928 4334 
z
" transform="scale(0.015625)"/>
       <path id="TimesNewRomanPSMT-52" d="M 4325 0 
L 3194 0 
L 1759 1981 
Q 1600 1975 1500 1975 
Q 1459 1975 1412 1976 
Q 1366 1978 1316 1981 
L 1316 750 
Q 1316 350 1403 253 
Q 1522 116 1759 116 
L 1925 116 
L 1925 0 
L 109 0 
L 109 116 
L 269 116 
Q 538 116 653 291 
Q 719 388 719 750 
L 719 3488 
Q 719 3888 631 3984 
Q 509 4122 269 4122 
L 109 4122 
L 109 4238 
L 1653 4238 
Q 2328 4238 2648 4139 
Q 2969 4041 3192 3777 
Q 3416 3513 3416 3147 
Q 3416 2756 3161 2468 
Q 2906 2181 2372 2063 
L 3247 847 
Q 3547 428 3762 290 
Q 3978 153 4325 116 
L 4325 0 
z
M 1316 2178 
Q 1375 2178 1419 2176 
Q 1463 2175 1491 2175 
Q 2097 2175 2405 2437 
Q 2713 2700 2713 3106 
Q 2713 3503 2464 3751 
Q 2216 4000 1806 4000 
Q 1625 4000 1316 3941 
L 1316 2178 
z
" transform="scale(0.015625)"/>
       <path id="TimesNewRomanPSMT-55" d="M 3053 4122 
L 3053 4238 
L 4553 4238 
L 4553 4122 
L 4394 4122 
Q 4144 4122 4009 3913 
Q 3944 3816 3944 3463 
L 3944 1744 
Q 3944 1106 3817 754 
Q 3691 403 3320 151 
Q 2950 -100 2313 -100 
Q 1619 -100 1259 140 
Q 900 381 750 788 
Q 650 1066 650 1831 
L 650 3488 
Q 650 3878 542 4000 
Q 434 4122 194 4122 
L 34 4122 
L 34 4238 
L 1866 4238 
L 1866 4122 
L 1703 4122 
Q 1441 4122 1328 3956 
Q 1250 3844 1250 3488 
L 1250 1641 
Q 1250 1394 1295 1075 
Q 1341 756 1459 578 
Q 1578 400 1801 284 
Q 2025 169 2350 169 
Q 2766 169 3094 350 
Q 3422 531 3542 814 
Q 3663 1097 3663 1772 
L 3663 3488 
Q 3663 3884 3575 3984 
Q 3453 4122 3213 4122 
L 3053 4122 
z
" transform="scale(0.015625)"/>
      </defs>
      <use xlink:href="#TimesNewRomanPSMT-47"/>
      <use xlink:href="#TimesNewRomanPSMT-52" x="72.216797"/>
      <use xlink:href="#TimesNewRomanPSMT-55" x="138.916016"/>
     </g>
    </g>
    <g id="line2d_27">
     <path d="M 67.915938 79.782688 
L 77.915938 79.782688 
L 87.915938 79.782688 
" style="fill: none; stroke: #d62728; stroke-width: 1.2; stroke-linecap: square"/>
    </g>
    <g id="text_16">
     <!-- LSTM -->
     <g transform="translate(95.915938 83.282688) scale(0.1 -0.1)">
      <defs>
       <path id="TimesNewRomanPSMT-4c" d="M 3669 1172 
L 3772 1150 
L 3409 0 
L 128 0 
L 128 116 
L 288 116 
Q 556 116 672 291 
Q 738 391 738 753 
L 738 3488 
Q 738 3884 650 3984 
Q 528 4122 288 4122 
L 128 4122 
L 128 4238 
L 2047 4238 
L 2047 4122 
Q 1709 4125 1573 4059 
Q 1438 3994 1388 3894 
Q 1338 3794 1338 3416 
L 1338 753 
Q 1338 494 1388 397 
Q 1425 331 1503 300 
Q 1581 269 1991 269 
L 2300 269 
Q 2788 269 2984 341 
Q 3181 413 3343 595 
Q 3506 778 3669 1172 
z
" transform="scale(0.015625)"/>
       <path id="TimesNewRomanPSMT-54" d="M 3703 4238 
L 3750 3244 
L 3631 3244 
Q 3597 3506 3538 3619 
Q 3441 3800 3280 3886 
Q 3119 3972 2856 3972 
L 2259 3972 
L 2259 734 
Q 2259 344 2344 247 
Q 2463 116 2709 116 
L 2856 116 
L 2856 0 
L 1059 0 
L 1059 116 
L 1209 116 
Q 1478 116 1591 278 
Q 1659 378 1659 734 
L 1659 3972 
L 1150 3972 
Q 853 3972 728 3928 
Q 566 3869 450 3700 
Q 334 3531 313 3244 
L 194 3244 
L 244 4238 
L 3703 4238 
z
" transform="scale(0.015625)"/>
      </defs>
      <use xlink:href="#TimesNewRomanPSMT-4c"/>
      <use xlink:href="#TimesNewRomanPSMT-53" x="61.083984"/>
      <use xlink:href="#TimesNewRomanPSMT-54" x="116.699219"/>
      <use xlink:href="#TimesNewRomanPSMT-4d" x="177.783203"/>
     </g>
    </g>
    <g id="line2d_28">
     <path d="M 67.915938 93.92175 
L 77.915938 93.92175 
L 87.915938 93.92175 
" style="fill: none; stroke: #9467bd; stroke-width: 1.2; stroke-linecap: square"/>
    </g>
    <g id="text_17">
     <!-- Proposed Model -->
     <g transform="translate(95.915938 97.42175) scale(0.1 -0.1)">
      <defs>
       <path id="TimesNewRomanPSMT-70" d="M -6 2578 
L 875 2934 
L 994 2934 
L 994 2266 
Q 1216 2644 1439 2795 
Q 1663 2947 1909 2947 
Q 2341 2947 2628 2609 
Q 2981 2197 2981 1534 
Q 2981 794 2556 309 
Q 2206 -88 1675 -88 
Q 1444 -88 1275 -22 
Q 1150 25 994 166 
L 994 -706 
Q 994 -1000 1030 -1079 
Q 1066 -1159 1155 -1206 
Q 1244 -1253 1478 -1253 
L 1478 -1369 
L -22 -1369 
L -22 -1253 
L 56 -1253 
Q 228 -1256 350 -1188 
Q 409 -1153 442 -1076 
Q 475 -1000 475 -688 
L 475 2019 
Q 475 2297 450 2372 
Q 425 2447 370 2484 
Q 316 2522 222 2522 
Q 147 2522 31 2478 
L -6 2578 
z
M 994 2081 
L 994 1013 
Q 994 666 1022 556 
Q 1066 375 1236 237 
Q 1406 100 1666 100 
Q 1978 100 2172 344 
Q 2425 663 2425 1241 
Q 2425 1897 2138 2250 
Q 1938 2494 1663 2494 
Q 1513 2494 1366 2419 
Q 1253 2363 994 2081 
z
" transform="scale(0.015625)"/>
      </defs>
      <use xlink:href="#TimesNewRomanPSMT-50"/>
      <use xlink:href="#TimesNewRomanPSMT-72" x="55.615234"/>
      <use xlink:href="#TimesNewRomanPSMT-6f" x="88.916016"/>
      <use xlink:href="#TimesNewRomanPSMT-70" x="138.916016"/>
      <use xlink:href="#TimesNewRomanPSMT-6f" x="188.916016"/>
      <use xlink:href="#TimesNewRomanPSMT-73" x="238.916016"/>
      <use xlink:href="#TimesNewRomanPSMT-65" x="277.832031"/>
      <use xlink:href="#TimesNewRomanPSMT-64" x="322.216797"/>
      <use xlink:href="#TimesNewRomanPSMT-20" x="372.216797"/>
      <use xlink:href="#TimesNewRomanPSMT-4d" x="397.216797"/>
      <use xlink:href="#TimesNewRomanPSMT-6f" x="486.132812"/>
      <use xlink:href="#TimesNewRomanPSMT-64" x="536.132812"/>
      <use xlink:href="#TimesNewRomanPSMT-65" x="586.132812"/>
      <use xlink:href="#TimesNewRomanPSMT-6c" x="630.517578"/>
     </g>
    </g>
   </g>
  </g>
 </g>
 <defs>
  <clipPath id="p7895a70591">
   <rect x="58.915938" y="24.8655" width="379.44" height="221.76"/>
  </clipPath>
 </defs>
</svg>
